<mxfile host="app.diagrams.net" modified="2024-01-29T23:33:20.960Z" agent="Mozilla/5.0 (Macintosh; Intel Mac OS X 10_15_7) AppleWebKit/537.36 (KHTML, like Gecko) Chrome/112.0.0.0 Safari/537.36" etag="MgQSglDdzxAtphYHd9bI" version="23.0.2" type="device">
  <diagram name="Page-1" id="MupG6uOxjwecPk0IZz5S">
    <mxGraphModel dx="5203" dy="3803" grid="1" gridSize="10" guides="1" tooltips="1" connect="1" arrows="1" fold="1" page="1" pageScale="1" pageWidth="850" pageHeight="1100" math="0" shadow="0">
      <root>
        <mxCell id="0" />
        <mxCell id="1" parent="0" />
        <mxCell id="grh18UKcflgdsuLqRHBV-1" value="" style="shape=image;verticalLabelPosition=bottom;labelBackgroundColor=default;verticalAlign=top;aspect=fixed;imageAspect=0;image=data:image/jpeg,/9j/4AAQSkZJRgABAQAAAQABAAD/2wBDAAcFBQYFBAcGBgYIBwcICxILCwoKCxYPEA0SGhYbGhkWGRgcICgiHB4mHhgZIzAkJiorLS4tGyIyNTEsNSgsLSz/2wBDAQcICAsJCxULCxUsHRkdLCwsLCwsLCwsLCwsLCwsLCwsLCwsLCwsLCwsLCwsLCwsLCwsLCwsLCwsLCwsLCwsLCz/wgARCAKWBQADASIAAhEBAxEB/8QAGgABAAMBAQEAAAAAAAAAAAAAAAMEBQIBBv/EABgBAQADAQAAAAAAAAAAAAAAAAACAwQB/9oADAMBAAIQAxAAAAH6ChxNiz/TXqN6yQabgAAAAAAAAAAAAAAAAAOffRy6HnnQ4djl0I+uhx70OXQ496HLoc++jnzscuhzxKOHY496HnnQ5dDl0OIrAqWehXkkHPvo4djl0OffRx16OfOxz76AAAAAAAAAAAAAAAAAAAAAAAAAAAAAAIE6uEchOQd6AAAAAAAAAAAAAAAAAAAAAAAAAAAAAAAAAAAAAAAAAAAAAAAAAAAAAAAAAAAAAAAAAAAAAAAAAAAAAAAAAAAAAAAAAAAAAAAAAAAAAAAAAAAAAAAAAAAAAAAAAAAAAAAAAAAAAAAAAAAAAAAAAAAAAAAAAAAAAAAAAAAAAAAAAAAAAAAUIjUY3BuMTo2WPIajL7NFUtgA8PWb0aDO9NBm8mozRpM/w0QAAAAAAAAAAAAAAAAAAAAAAAAAAAAAAAAAAAAAAAAAAAAAAAAAAAAAAAAAAAAAAAAAKlvPJ7IDNNJ5AWHEJZBl6dO0dgZmnlGp6A4O2ZYLbjsRyDO0c/QAAAAAAAAAAAAAAAAAAAAAAAAAAAAAAAAAAAAAAAAAAAAAAAAAAAAAAAAAAAAAAAAAGdo55oOOxh7gwvN4fPXtMAUrVHQPQM3SzDTAhmGZBtAADL1MvUAAAAAAAAAAAAAAAAAAAAAAAAAAAAAAAAAAAAAAAAAAAAAAAAAAAAAAAAAAAAAAAAAHnoxLegM9oUzI0aW+Znl3kg9vjL1AAVbQyZ74z62z86aXS8ZcnV4ow6gjkAAAAAAAAZhpsyE2WF6bjD8N1iSGuzOjRUroAAAAAAAAAAAAAAAAAAAAAAAAAAAAAAAAAAAAAAAAAAAAAAAAAABSXRQ80Bn9XhiXV4yHXRL7dFLm+M/2+KK8M9oDPzvoc8NAfOX83cIerwz/ADRGc0Rnz2QAAAAAzdHNNMgPZvl7Ru+fPcn0Pnz9w2QZ+hnaIAAAAAAAAAAAAAAAAAAAAAAAAAAAAAAAAAAAIyRFGWUdUvM/QAAAAAAAAAAAAAHnuSaPleIks0vSGXvss+1vC6y9QAVLeaOtAZ8OsM3zTGJY0xm9aAyNTrONIAAAAAADN0s80GdwajIpn0HeINt8jom6yZiLVhmAAAAAAAAAAAAAAAAAAAAAAAAAAAAAAAAAAAGZp5ZRvVITQ6rbhlX5gAAAAAAAAAAAAAz9DNNLM06BDz30OpoSa1VtGZp5+gAMvUyjRyNiAr8T1SOxYGfNfjM+S2LmbpZppAAGeaDN7L7PGgo+F9i7QAAz5sU+kBgX/bh2AAAAAAAAAAAAAAAAAAAAAAAAAAAAAAAAAAAABTuUivYr6Jh3JJSpZdFefqcyrfgvAAAAAAAAAAAYO8KC+M9oZZJzbnM5ojL1AAZmnwdszs0GfyaTCmNdkcmyyJSxH7dAAGdo5hUi3RHS06hW904TNtw65VtfOWDbZ3poY1j00Gf4WfIBoKHBpKUhZAr2MknXxnNEZ3OmMxpjOj1YyRnaIAAAAAAAAAAAAAAAAAAAAAAAAAAAo3hidbIAAAAAAAAAAAAAAAcd45c8sCtV0+T57Ys+FdMIU3JGkEaQRpBGk9MDckEab0g6n9Pe8jXAAEE4zu73hS5v+mc0RlaoM3SyC9HzUNb3IqmzZxqxtT48Zr+4O4fNWNTSM73QGfT3MY2eO4zI0K3hY8rCxZzJjTBnaNG8AAAAAAAAAAAAAAAAAAAAAAAAAAAAAAAAAAAAAAAAAAAAM7RzDTAAAAAztGkc36dwAAAAAzdLP0AAAD5jSh9IJI7R5FJIe59qufRZkWefUMz00mVya7I5Nlj9mrzQiINOx6V4b0Bm+9zGgz+DTZQ1WV6ajM6NHylweaXPQAAAAAAAAAAAAAAAAAAAAAAAAAAAAAAAAAAAAAAAAAAAAytUZ3OmMvnWGR7rDHbAxvNoYntrQMVtDG92Bj+64ymqMz3SGe0Bi7QAAAZmnl+mnkc8F69hdm1ldemkAAAAAAyKRvMr01u/npzWlzKxs9/P6Jd6w7hdq0Yj6DjEjPomdogAAAAAAAAAAAAAAAAAAAAAAAAAAAzTSYfJvIZgAAAAAAAAAAAAAAAAAVS0zRpM0Yf12NZNBQF9QF9n+l8AAAAAAAAAAAAAAAAAAAAAAAAAAAAAAAAAAAAAAAAAAAAAAAAAAAACKUVKGnXI0vpDarXCj7zGXOZ4TiKSAvW6toAAAAAAAAAAAAzZ474AAAAAgnFC/naIAAAAAAAAAAAAAAAAAAAAAAAAAAAAAAAAAAAAAAAAAAAAAAAAAAAAiliM+npZZ3d4rmlQryHM0O0YfGrmmjnWapNPByakVO0ZVy3QJIHptz5EJuvlNwvgAAAAAAzdKhfAMrO+mGFW+mHzfP0wpXQAyNfM0wAAAAAAAAAAAAAAAAAAAAAAAAAAAAAAAAAAAAAAAAAAAAAAAAAAABx3Gc1vOSC15AaXEdI0vcHWKmlV8Jo4JSbmn2anYAOOwBx16AAAAAAAKM1ikXWbCbDD5N5h+G6wvDeYXZtRUZDjSAAAAAAAAAAAAAAAAAAAAAAAAAAAAAAAAAAAAAAAAAAAAAAAAAAAAAA+Y0TWYPZtsnWAAAAAAAAAAAAAAAAAAAAAAAAAAAAAAAAAACnIWFK6AAAAAAEFU0WH2bLFuF5l9mipQGozODWVYTQZdwsM2I12VOXgACEmUM4+gYVc+lfPSG6+e4PpHzOyXXyu0aDBhPpHzeqX2B6bzA0C+AAAAAAAAAAB56I6lvOLvFSgb3nFYlkrcmn3naIAAAAAAAAAARfMn1b5uU33zkxuszTAAAAAAAAAAAAAAAAAPIZoTPZsxq3vnpTc8wKZ9Y+eH0Hvzf0gAAAoz55xJxITeUpSezRkLPOJsnnmbplihRlLNqtUNDvNvEvlwAAPPYRU7gF2jIXuMqA22fdOvYqZq1ua5cjp9mtBndGlFR8PdCrEbAAAAAAAAAAAHnoq4f03J87NvDN0gAAAAAAAAAAAAEZIrzHXCsTTU5yVSlLCGYAHh6AAAAAAAAAAAADyGfwxob9gyNL2cmAAAAABDl61Ux5rNor6taEvs6yT+gAAAAAAAz9CEqZmtXKcViYq6U1A9p3ojVnw+jaZcRssO+XVKgbjDkNhj8G289AAAAAAAAAAAAADjsAAAAAAAAAAAA4q2qxkexWy9l+Ujasy2DBk2hlWLo+c63uDF5+iGBpXQAAAAAAAAAAAAAAAAAAAABxUnzTv2jYIZaW4VZNMAAAAAAAAAQ8WRF5MKc0wh6kFfuUVpZBUsdjmOYVoNAV5JB56AAAAAAAAAADjvw+Vn2a5T7uQlu3T8LrK6NNlSGiq2gAAAAAAAADnnqAzY5dIiuQWAAAAAAAAAAAAAAAAAAAAAAAAAAACDP16hlTd3DKkn7IItP0zrEvJoAAAAAAAPK5ZUOTRUa5rK1Q1FXgusro01O4AAAAAAAAAAAAAAAAKN4UO7gyL1kZnGsKdfUFS2AAAAAAAAAABBWNAiJQAAAAAAAAAAAAAAAAAAAAAAAAAAQ0tMZHOyPn+90YraGFo3AAAAAAAA49qlb3O8NDql4a9XO2DiKt4XeZc8ta3zmmXuvnNUvMKA+i5w6p9N1872fQsfYAAAAAAAAAAAAAAAAAAAAAAAAAAEE8Bjye8FbSp6hcAAAAAAAAAAAAAAAAAAAAAAAAAAAAAAAAAAAAAABxj7fBhz6grU9aAy+9jkzZ5bB81s2/DFk1ezH0ebB8/o6HRTpbMBn7FayAAAAAAAAAAAAAAAAAAAAAAAAAAAAeeh56AAAAAAAAAAAAAAAAAADnoQYu/nFfjR9KUk8Y7qXy2gnAAAAAAAAAAAAAAAAAAAAAAAAAAAAAAAAAAAAAAAAAAAAAAAAAAAAAPMTbzCHR5smX1NweJYCKWesR8WbpVhl6LtTmqaHmbfPebPBVJCepYqHflmod8W4SSPgczddnPNnkreS1DvycdXYZgBz1yRY+v88T36lQldTED6MZ+gAChfgMju90Z93qwZvN3kg6lkLIAAAAAAAAAAAAAAAAAAAAAAAAAAAAAAAAAAAAAAAAAAAAAABim0AAAAAAAAAAAAAAAAAAAB56K+PuwGfPH4dTRcmjn36RL1H0dWsDeJAAAAAAAAAAAAAAAAAAAAAAAAAAAAAAAAAAAAAAAAAAAAAAAAAAAAKtqgcy1+ixNjaRzdoXwAAAAAAAAAAAAAAAABz0K9LVHz/H0YwovouDsAAAAAAAAAAAAAAAAAAAAAAAAAAAAAAAAAAAAAAAAAAAAAAAAAAAAAAAADJ1s8j1Mvw1WTnH07noAAAAAAAAAAAAAAAA8gzuTQhgtnvdLJPo+Knpp+ZFY1LmfEbPnzvBuzYUpJeowF7mGM0LOLwbEmRRPqWJtgAAAAAAAAAAAAAAAAAAAAAAAAAAAAAAAAAAAAAAAAAAAAAACGbKLebF0aVaoNKxk+m4x9gAAAAAAAAAAAAAAAAAAAAAAAAAAAAAAAAAAAAAAAAAAAAAAAAAAAAAAAAAAAAAAAAAAAAAAAAAAAZ2jUMSzciIIdaMs2MbTJgAAAAAAAAAAAAAAACmcRcylKS/VIZOJiH2wOuFcs6Pz/wBAAAAAAAAAAAAAAAAAAAAAAAAAAAAAAAAAAAAAAAAAAAAAAAAAAAAAKtrONHN0hlyaAyZ74zbsoAAAAAAAAAAAAAAAAU7gwo/oRgw/SeHz/P0Y+dpfX8kFkAAAAAAAAAAAAAAAAAAAAAAAAAAAAAAAAAAAAAAAAAAAAAAAAAAAAABGSK8ZcR8E6t0TgAAAAAAAAAAAAAAAAAAAAAAAAAAAAAAAAAAAAAAAAAAAAAAAAAAAAAAAAAAAAAAAAAAAAAAAAAARSZJr42yMabTGT7qjFt3wAAAAAAAAAAAAAAAAAAAAAAAAAAAAAAAAAAAAAAAAAAAAAAAAAAAAAAAAAAAAAAAAAAAAAAAAAAApXcw96raZH7FUJpIOC5ZzITbqY2kS91uS9TilJr2donoAAAAAAAAAAAAAAAAAAAAAAAAAAAAAAAAAAAAAAAAAAAAAAAAAAAAAAAAAAAAAAAAAAAAAABVLSvYAAAAAAAAAAAAAAAAAAAAAAAAAAAAAAAAAAAAAAAAAAAAAAAAAAAAAAAAAAAAAAAAAAAAAAAAAAAAAAEE4gnRknOBCfSd/N+n0b5/033ztQ+tZukAAAAAAAAAAAAAAAAAAAAAAAAAAAAAAAAAAAAAAAAAAAAAAAAAAAAAAAAAAAAAAAAAAAAAAAAAKtqAitOjjsAFayAAAAAAAAAAAAAAAAAAAAAAAAAAAAAAAAAAAAAAAAAAAAAAAAAAAAAAAAAAAAAAAAAAAAAAAAAAAAAAAAAAAAAAAAAAAAAAAAAAAAAAAAAAAAAAAAAAAAAAAAAAAAAAAAAAAAAAAAAAAAAAAAAAAAAAAAAAAAAAAAAAAAAAAAAAAAAAAAAAAAAAAAAAAAAAAAAAAAAAAAAAAAAAAAAAAAAAAAAAAAAAAAAAAAAAAAAAAAAAAAAAAAAAAAAAAAAAAAAAAAAAAAAAAAAAAAAAAAAAAAAAAAAAAAAAAAAAAAAAP/8QAMhAAAgIBBAEBBwIGAwEBAAAAAgMBBAAREhMUBRUQIDAxQFBgIXAiIyQzNDUlMoCQRf/aAAgBAQABBQIvJpC0Pl4W+Pn9n0jTSNNM0jXIiIzbGbYjNIzbEzIROaRm2JzSMiIjNIzbE5tic0jWIiM0jNIzSNdsZpGmkZpE4IQObYjNo6bRzbGuaRmkZpGRERm2NdsYSt08MZpGErdIjA5tj2bR02xOTETmkZpEZpm2M0yIiM2jm2JjT9fvlnxTX3G+LNlePn+zvHnHkDp/9QjtqBk3dMnyOmep56mOepDnqIZ3xzvRncjFWVO96LqyztxncHO4Gd5ed9ed0c7o524zuqif2FsnKqqVQlXwbw/08frHtt/xzpp8EhExp6ir9hLv+J7Tt8bshwEe6JyHRNj2XP8ABD/p7Xz/AMj7SKAHvL2TZVADO4fbV/ufsJe/xPa7x/Pa9NHPTI3B4sNlWmNWfZc/wQ/6e12nf9rVw1Z1WGJ+OWfu1P737CXv8ISgw+DenShHy9r523PhUi3/ALC/PFV7FTN1vN1vN1vKl+zbzddyTuREMuFG63m63nXY1nuPQNhK13QzS3mlzHufWTpbzS1hnZDP6zP6rCTYbgAKw/Yi1umvXXK7GO/RFb9Kvw/JRD8qTPBln5/SczXlKrmcN/OHyWcPkc4fI5w+Szh8jnDfyFXM2W4hDuX8ol5RPYPOwzOwzOwzOdmV3M152497eul7YRzNzmbnM3Od2c7s5nZzOzmdnM/Od+c78sbxTBuieaxjrLWSNh55zWM5bGctnOW1nLazltZy2cWTSn4dDT0/2QwJn2axOSYiW+OX2D+nkfy2t88tskIrmRn8O5/Y9l44q2a65XX+j8d/rcaMmnoM45RckyXZNgUX1sKvf3VFtgvZH+y/KvlnIEZzLxUgueZeX9HUqcQmrvDN4z7z3QgIG2WcdrOO1jK9hg8VzOK5jadh+cVzOK5nHaxjbNaBKDH49H/E9zSIn3UnyeR/CCMQiWAOS9Y5BiUlZEHDcUZfWKUNg5pVZz02lnptLPTqcZ0KmdOrGdStnTrTiRlFn3GRr5H4Xzjx47KXx2VANvUnOlOdCcVUlhem56bl5HTrhQghijpnUxawUH4RbqdqHeNExXRUs6lPqyVICtF4+uUqCFK+rpf2Ms24rn3gNYX1wMXkzg21ziLC7K8L/ae4f+1LXYPkAWnvV95eQRBDdJUxfRu763R6gja68ESHkUs9lH9av0df+97L38ZVv5Zfhd0nAO+60VtvNXDra3fXUf8AHxtRLcXRQKZoq166tpU0liU8I5P+x9xkf8qQwYjXSGTWTtTRAFhVQGdSvkqCc6qNOrX1XWWqcoRpU922ZimKYxnTVnSTnSTnTVnTXjFFV96xBkgWc7vZbGOkP6j+Fvsqr5HkK0mDV8JWBY6b6YzvqGUWBsYd5C5599dd6OFNpVgvp181N3bHO2EZ3AzurzuBneDO4M5Nz9K8NY73HlCbXwnvCuqoBLqe7by7f4GxZuRUJkrr+oL1i+OgXhmHP7HiztcJc4b/AHK1Lgu+x8bq9eda3vsaCY7Wudmc7edvO3ncnO5Odyc7c531iX3l7ELwKtY4gBgOlX2xWTBHWWZhWUpnXTyREDkU68RWrBXH6t8cLVsFsfAIRMRogGdWc6s51CyUH2uiWdEs9PnOhkU8CqoD965GSoJg1gwZAZDp182DoVdJzZWCKGWPGmyf585FCrGdGtnQrZ0a+dGvnQrZ0K2dGrnSrRk0a+VWExJPWJ+1I8l34JgJhT1Ff3iwjmhlE2nWqmmz9eRQMdutncq53auNsUnDQYmpPfqZ36md+pnfqZ36md+pnfqZ36md+pnfqZ36md+pnfqZVYoL/dq53aud2rndq53K2CQnHvNWLl8VmM47GcdjOO1nFazitZFQzZ7Nf+Ua9aYXaS1hGIxrGhWFBGuuOsKRkFBQDYNimckSq601bk5w2M4HZ1jzx36FhTtGPJBMTZTGdpO3tKwbapDkDT2Vf7v41xBas7AzjDOIM4VZwKzrpnOsjOsjOsjOpXzqV86lfOpXzqV86lfOpXzqV86tfOsjOsjOBWcKs4gzYOOUKG/A1jNY9+f9xZrzYGaMzg+PCMnxpEcUZmfTjlvpimZ6b+h+LnakOMKfz9yhGjsIdw9ENvQTufRBzOgE43x6zlNJSGeyv/c/GqnxG2CU8LEssfDv/wCL7/6GHTqFDa9NUjW8dk1qIYtVTXrUttSBVYxn8HkPgzOkVrKVpZYSmWWFKmy7jEr/AF8ouWxnwqZcg/jVONPiNqrcwKy1t+HcjVPvoV2KReNrkyvRmVT45E4PjK8D6erX0xOjBXSsM5LIV/EqkhpyEdVmTUbnTbnTbnRbnRZkUzjOqeHQBuaaRmmNCTGaANxlNJz12Z1nZ1HZ1HZ1HZ1XZ1nZ13ZwNyam/IiIj8a3zVd36+eoVs9RrZ6lWz1StnqSM9TRnqaM9URnqiM9Vr6+qIz1RGeqIz1RGepoz1NGepIz1GvnqNfPUEZ30Z3kZ3UZy91vv0NOp7LbHiytDdnsfMd/40sEWsYK4MoAfnknAlmsbsiYmMKdoqsg0s3Rr+Tf/pfS9SQbKbWTXvZ1vIZ1fIZ172Qm1ianG74lpLjeFS0WIqvGy+q9tiaLjR17XJbQ1ude5uCk6H2EmyerZE7SmNX17XJNJ8H1bmkUnclNbVI/JWzMXvzK6s2J1fWyHXYYuSlf2RlhSc79fO/Xzv1879fJs05dF6vOd1Gd1Gd1Gd1Gd6vi7ldp/lbGAoXNlaV3TJsX0TneVgXktYx4KnvojGX66xXZW05tqFvcVr6jV2KsKeX1N1hrQiuFcPhsUDQqkWz8raoHB1EFBIrzJ1UmrpKnDUDcOsnnXUrEtaxVDKaXMWlBRFVXMAKUX1Nj+78VE/1n5UYyY3YZwxTtwHRPlqpcrOD+reD2Xjq3Snr2hyKlnl4bvJWQaExStxnUZD6K3rgUaWnLsE2a12FdRxiKLsGda9xK14vobX9z23hMlANhLBm4ye1b362XZ27UMQTmR7av+d+VMkhG0xgVYuMA61srGNst7K7rIVNtwKHyB8pycTUNpCdpjYptN9h1txT3TiStvUtd8ps2HNWxzzGlHkSnCbahnqZaoNifFxceWd1oMQ1jp+NY/u/Frxpc/KpKBg2AsDsVtxX47IWB0k9Clys3LXgsAwdfAZJoLBtgVqmzAvGyo5OzXiB02+5tiJ9kjBR8e0MylTQcv4ZsFY1BLT8qIBOLSOcIpJFMU0wJUBlz6y7I+mVdC8fDLC68BXCmoJtVuxM+Nrzg0UjA+NTGIoChn1J1Emc0Uzk+MROek15n0itnpNfPSK056PVz0itnpFbI8VWjIoIHBpoA/wDwYFi1ibL2NsA7uzcdJV7RtL8FXaS1kuWOKsqcfxRaJGVrQe6wFR5Kvxnf/lTaWId9PJZeaSCytjCtENuLycbfWvDcK0RcTpF+vsFwEnup2DbOWT5GvEJtLcz3TIhyy/r56n/CflFDPLbsOi518nyMRnqJjhXf40XjHEMY1SLDa6q7mPyfIzL7FxpL5CSVV5PVHkdCHyY7PUt81LEWUfUCYnCrPIMPURFZSAG0Frh6iKLiJKLCtwlBD+AAsVgvx6ksnxytikSqfZ8/iSuvyCPjpUKKzp6aM6lYsYtU2GqBwChQG1CmFw13x00a8QyqKtRTG0UmsRTt6dfTrK3jWSBDVSDfeNoLwLijbMo7AQtYwUTn8tgDKhknKBjIVMw4JkDFgpsCwF8YCi0Lk/pOBCV4LBKXaMCu2szBanb9RAxA+nVyDoVhlfjYLDRDFdBO709OHQRx0lSmv9KyZFf9ahcRYW2WX5Iovb914Mqua77KEnsEL0FE2iKrFwLVi28LLLNlbxJ9Kuy1ZWg7dkUQ19l3vivQ5qsk4qEVZ9ZjJKraKEVnLa2rut1UMTm17rQo1rDSfCrCTcHXt8g0SF11DGj0WQXTPbT3zW981gzLNfsAdEWZ0VCFJelL0qtrYoCtFej13HWUbX1VWJLx45VR11+nKz0xWnptfKKOFheOSRH4yuwfTEQRUhOfTUfU/wAa0pDyBCytacnjubqfNCvriGDFaxUv7ILRMJvyWepSJH5LRdcocHxIIpMrJ7htmKBuMA61ztfS2efK8WJyx3JbLbcM0slK+2Cq/ZwotblPvYuDhf2SI0j60zhYLct0TMCIlBw2ylMzaRGMYCg7SeQnAALaDQ+w9JG3gXKQqqDAAVj8SDCSmyIj3D4ilBzD1SDLalz3F6cy9v0Js48sWOvE3hxt4SV6ioCXYW1UeTRI+pVoH1Wtsm4zn9TVGKui11p8pcPkgJdh41wB8NR6kEjFwuxHkq8h6iuRLytUY+f3Yo3C1G+o2iwR6TDZWWaa8+PabpqyDXplmT47cY1WxFWsaZQtqxE75yTbglt8gIkiwc7LolXhwh9q2xEzVVy9NPHPjqsk+kEoTSTuZ49JiqklTvomKW2OBUFxhqQRIV08CIWA5xhmwdeFesLCJ4FckiJYdZTJ2xppGEpZjCFRj6/ImEhC9g6/WCUFH1Ja7WG0aqrNkJm61ZhdtFnaeJqYLB92IiMlYEf24RPeSHEa0NWM9427b669cSEfv5a7Z7CFbbEvht/IddhlYZGv9TMwMQYyD/IglnqKzKuyTD7uLNxlb0mLbZA7wxC7kJhl0yVN8AkvJr0i9sxF5Nmfvm9TkrtTsm4nSPIIkV2ktlllajC+hk9+vOT5GrEFdQJoeNhX0cxrDVwVetSCFCkBWtUKj7xJJiYfThP8rjAVWRdFRADCWQ4lLCVosDVYLA+N8slw8A20yp1xKZ7aNXX1DXa9aIsXBSoHrNhWkAR30wubQckWkTH2LqV9OmjXrJ1ipEXjSs4miogVQSCprJ2jQSuU11o/EIWInNSZYNRkCVDc13jyLIoTANok0h8fxkdJhWa6eAfj7YkfTq2FSRpNBe+fH1il6Rev0+viKg12dFcveivoXj0SA0K+uTMRHt1jUzFYbx5NY1+8NZCVhcUbMFgn+Hz8p3qrLXflR1bDRNFooMb0OmvcKbMWNk1rfLCbpSa2nU4b2DVuQVbmisVa06vtZ1BVZ0AL8rmu4Xyi65PXvchVXFNXsdj7sAbSOgxkz4+Nera0q1utP4cUwI+ppIQvDYt2rDVmb9lbvwLI8qmc9SDaN7Vli2NaTu7V2bHXHvGDO/vyfIYLYOui8x0LsEXj0WQsAPk68iHkVMb94Eiku/8Axd5hBHk92V2Mar8P2jGQIxhCJxpGk11EyRicJYmMVkjkjE5sHU1g0eMM2xGdVEkICAxERmn6aYxe5aUipf3v5fZ/lAsEw7b5XPklrOfIiK+2Rj6jVkovV5FNtT2/sxMaxCKk5wVywq4Ezp18cKFA6ouwsK4LIGiyfyz1NeRfKVpM2Ay3AWO7HLN5OhXq4Sd2eeb9fYF3eUW2Q3vVsbfWGDOsdtEFFhM4qwp8xaUVg3/1M36sC66pQqZyKi/WkSuqjBvL653ljC7e+ydpQHN2uJ9lhFXsc0dpXYa/R5WxFXdRCTufpFogcqxDS9yf1gF8YKoMSPQeJVVmmtVonIK8ee7pNl50nc9VE1w9y0bloO2yYi0cNnyaJN5zC/UEYu7MlN1W0byDb+PzQrSI1lAERoJ1VmiaSZwayRyKSxlNVSBHxyYzoVow1AzDpLJsU0ivqRorxyhhtAJNFYa+QoBJqFOg6CSwaihIa4hXXQQKorJEvT1RkV1cfSRylQRKworA+qqTTXUiIUEG1C3iNVQn6cmJmooldNPICxXHuT8hMuKvaf1yvnGKY+rVjyM6JtvdPvsULYiqiM6ydxVUFEgMxFZMZNVBF1UaChQfsV8s5QlUXjYhzVS0Li+ErwaQ+sswYDBK+HHNxAyNpJkVpABBQQ/lPjt0q+1SMbSrrNfSUJ9FcWBoKgPTkySkrSMUFRHRRMHUSxgeOGSAdo/lMklEhcUZzZSOFYSGCYlldjGD9kn5QBcVdVkDt0Dsu235Phv7iCyqPy+zX7AlSE5GkoYjxoxiU8IISK5+1aRM/mdnsw2jqCPsznAhQ2FGEXkFirK3YhwPU5vEpNlb5mYjIKJF9oa5AW4fYtvIcFE53o42OBIdtesXkkkrEDglBQbYBgnBfkT7aqxRfrkR+RrLCbv8pPkWlH2K1VmzZDx0DkUdSKtBiVOTgvGlBV6MJiacymPH7ZZ4r+AqpGg6HI46PAhVF25lDksz4xWR49QqGhPMNIhbPj9RnxgyfpkkEUJFsoZcuUVkDPyAlAczXTM9RayWpGOZUCUoSJcq5b+zNiuxjjomJ9BhAdWxJxQeIFRbOTTbB01tTP7MPe1R994rF9swG3Z3letQpJ8ifsdhuzO/X0dfjf3QXjLxCBW2DaVe3TWvC2O4iQRYk6oXa5j+WHYUtjLawZFwV52lboupPItukFsFq/sM1lzJpXi69cMCupeNr1sJdEoKvXCZpo0KjXPOhWyxTIhPxw8X5V2F8+HUBtr0+thU0kHp1fiVVFUdFOwAFYfYZ58dWcSuk2D6j5gEPcuaTJrzTtmWra9MTs9dEnNf8s2NK79t+XuTGsf+Dd4xkuWK69gLKiMRkmrAIsKnOZe79lwMWRjvHKZgePGGDWYvOmRMCgpbJ8cEsTVWif2XorYI/s+2yCmFdULV2xax7ZWHOrHWxDBswRRYgrEmMZrGMfEJCzuyLKuQnqHCu6R21bf2QdRU9iPHLrkK4A3I35W8epIB45A43x4GMUY2+k1oE6G+yinCc6KxwqA4nx4pbNPUemuRj9I/8X2XxWrJMjV+zzglqVBxp9kzEZujd+zhlsBD7z4KLdrDN1eBYZO7N7ad54Emy+cXWtg2mySX+ylg+OtWbLq0xrAjAj7nAHP+y7VC5cRpH/2b/8QAGhEAAAcAAAAAAAAAAAAAAAAAAAEDEiJgsP/aAAgBAwEBPwGITp7S00P/xAAdEQABAgcAAAAAAAAAAAAAAAAAAhEDEyIxUWCw/9oACAECAQE/AaCBbT5acDN0z//EAEsQAAIBAgMDBgkJBgQFBQEAAAECEQADEiExEyJBBDI0UWFxECMzQoGRkpPRIDBAUFJgc6GxFHByweHwQ2KisiSAgsLxNVNjg5Cj/9oACAEBAAY/AjYw3GKmGYLkKvpfVsKXcAZVyHf9UxFR4NPBkK0rStKmKOWvg0HgyEeDQVmKmM6yFaeCYzrQVEZeCYrtrIVECK0FTA8GnhyFTAmtK4eqtfB+Wng0GfgiBWgrMeDTwaeDIRWgzqI+vjdFy2stOICGFcpt7QeOu7TTT/8AePBvO/EIsxXR+UHut10PlXu66Hyv3ddF5V7quj8p90a8hyn3RryHKPdGvIco92a8jf8AdmiEbeGqnIj5W4LlwdaoYryV73ZryV/3Zryd73ZrmXvdGvJ3/dGvJX/dGvI3/dmvJXvdmgHxW5+2sfuGuOvOAy76CDhx6/mmvLlctbwPybVjhcbe7h80VYAg6g01qZ2TFR3cP3Ct3j9fkFGQ4RG93+AqGzFZGmtRzVBnw3/wz+lDu+RyXuf5BZjAGtYsNwjFhO7mD3UGxiGBI7aB6/kcp/F/kP3Ct3r+vyNq1xeEbma9xpvHPv66Z0z7SHK4d1YAqG3cPNwTl20SGJxa+G/+Gf0od3yOTde9+nyCjaNSj9obJsU4RS4ncxn69fk8r/F/7R+4W4fsjF6s6DKZBzHzV7tWPk8mJ4ll/L5u+40a6Y7eH8v3DYLDI9nzVfIr6a8lZ9s/CvJWfbPwryVn2z8KuYLNoYG4udPVXkrHtn4VJt2PbPwoEW7BB/zn4V5K17Z+FeSte2fhSvyhlIXMIuk/JKNPeNRUHlFu4Otkzrn2fZPxrn2fZPxo3bt2yFH+U/GufZ9k/GudZ9Rpc7W8Y0Na2PUa51n1GouXwqdVtYProIgwqNB+4kqmr7tYkXLaMh7vBc/hNWv4B85smzRIZvSYH86wHnWzgPo8Fj8QfRSLAUIDG0bj3CsuU2/df1rpdr3X9a6Xa93XS7fu66Xb93XS7Xu66Zb91XS7fuv610q37r+tZXrTdhSP50wZcDoYZfvR0e6fV8a6Nd/L410W7/p+NdEu/wCn410S7/p+NdFuetfjV3/h7h8YeK/Gui3PWvxq5/wtwbp4r8at/wDCXOaOK/Guiv61+NdFf1r8a6K/rX410R/aX410S57S/Guiv7S10VvaFdFb2hXRW9sV0RvbFdEb2xTn9mIxupO+OsUY5Nr/AJxXRf8AWKtRyfm3o5/GjHJtDHPFdF/1iujj266MPeV0ZfeV0ZfeV0ZfeV0ZfeUcdsIP4p+csx9nwwHUnTX5CgnNtKCcSJ8Nzttr+p+9178Q+Bl817bR31A5iKB6fnB/Gn+4eFGPNuMG9I/sUqnnanv+iWP4PAygTI64pJtq2zbdTHwojawpOcHhPDqq5ycXZSNSc4P9milm4xQmZLQdIj9K2hdGdJw+qla4XMAiXyOvhf8ACX9T97Oevrryi+urnjE3mxa15RfXT7NlLrmudIrsMerZ8a5w9dc4fKmCzEwqjiak3bSdgSa6Snu/610lPd/1qG5SuoPk+r010m37r+tdKt+6/rSbTlFs4GxDxXH110q37r+tdJt+6/rXSU93/Wto4W9aHOwiGFBlMg5j6Aqcbe4R3fJJjM/K5QRoiqk9ufx+5MswUdtZsB6a3mCjgToaIDAka1s2Vh/mjLSaQCd4T9Ne7dGPeKqDoAKz5Na9gV0W17NdFtezXRbXs10az7Aro1r2BXR7XsCuj2vZFGxiJtlcSz5vZ8mz/lRj+nziJM4ZX8/oG0DPbfiUaJrpN/1j4V0rlHtV0zlPt1dH7XyncfDz+yumcq95XTOVe8raftXK2OICNpQZeW8qIOflK6Vyn263r95h/FWG2oUdn3JWSN3gdKZs3uPGLhlIoNLGOumgqQezOtublzFwGLIUdyASCQMtKVBouX0w/iP/ALj4LSZYnYDuHXWKyNtlMDU0m1dVZzAAk0ecBGKSuoqCYMSeoemsdpsS6eC3+E36j5Nn8J/1Wjhie2rZ5U6I9wYgFortNBimkXESXMRGlN+0YcIYriHwrCzbNup8qi0WBDCZEcaxHEMpAK6jrq2tp+cy58Irxa3HzjIeD/qb/cfonKfxP+0eF/8A4Un0n/xVywfMMr/CfuYrWcRzzCiZplNjAJmcWZHVW02Sk6pnA4/0q2ly2rBjhxD++r6efxH/ANx8DEoMTedxpUNtZjOgUm2RxWra4BFvm9lHdIxawYmoDM3f4E/CP6j5Nj8N/wBVoqwkGgFtII7KOG1bB/hoYt1852ZK0StpATrlQ8Rby03a5g668ims82j4lM+ypE5ZCTMeAfxN/uPygts4XdgoPVWdy8x69oa/xPeNWj+8atH941ef7xq5133jVtrd24QOcjtiBHym2Zh9RTKpI2zq3owjw38vMNA9n3MXaNGLTKmXHzTE8KY2xuJOg/SrF63yfEWkYyQIrzjnA3ed3UofJmaAONNhBGExnTY2ICmJjKa2ttS/UNDSNdXCzLihd6B10wtmcPZ9IuKbTXbDtjUrqs8K8neH/wBZrmXvdNXMve6auZe901cy97pq8lf90a8lf92aysXz/wBFG/eTZ5YVSZy7fk2rrZLBSeqf/HzZuP6uukV+fqflWPxRSW0YYtW7BWN1RchDMI/Ka2h8YQPM41bEMWfgueHvoFrbqGEpMb1GQdwS7DQVedVZMiN4UReRkXg+o/pSjFz+aeB+TfuzuvzR1dfhuDrU1aPWo+Yl2isrF72a6Pe9VdHv+zXR7/s10a/7NdF5R7IrovKPZFdF5R7Iro1/1D40BdS5ani65ev66G3KDFujFX20nmkyorAAAsRFYdnkTizNYtkszOlY81brUxNF0WGPGaL7NcR4xWQigNkuWdZKMR1IGv0wcpXTS4Ozr9FErwMfMlWAIPA14u5dQdQfKukXvarpN/110rlHrHwrZDlV/m4iZHwrpvKfaHwrpvKfaHwrpvKvbHwrpfKfbrpN/wBqscFn+05n5dnsurUFBmZ0rC6Kw6iKwFRh0isrYX+HKhujd07KlrSH0Veic14mfAxtXVtT9lf61a5M93ejE7qIkV5Be815Fa8n+Zrmf6jXM/1GvJ/ma8kK8gteQT1Vu2xbb7SZGt/nqSp9FBC4xnhx+RevNngOzTs6/mirCVOoNPaP+E2Ed3D65UrhDqZBImpbld2OoZU9xjix+di/l9QSxAHbXSLXtiukWvbFdJs+2KhuU28swQ+lXUbltl0Jld4V0m17YrpNr2xXSbXtiuk2vbFdJte2K6Ta9sV0m17YrpNr2xXSbXtiuk2vbFdJte2K6Ta9sV0m17Yq/dfllrATuDaCuk2fbFdJs+2K6TZ9sV0mz7YrpFr2xUqQw7PlsjaGukiO1M66Qvu66Qvu66Svu/610lPd/wBa6Snu/wCtBr983FGYTDA8IH/xfzoY2icgOJo21ffGq1JNTNMWfmxPp8A2jhZoEaGrif8AtmDRMRDEVe2N4C2LrSmhPprBtRycnrsxPpmuln0IK6Xc9lfhWfKr35fCuVLiLRe49w8BPVSnZvDmFjM003VBXUTpWPGAswCTrWTYt7AY4GsZOBZgFspoHEMzA7/Dyr8X/tH3bdry41tHCqnTvrmD1VzF9VcxfVXk19VeST1V5JPZryNv2a8jb9mvI2/Zro9r2BXR7XsCuj2vYFdHtewK6Pa9gV0e17Aro9r2BXR7XsCvIW/ZFeRt+zXkbfs15JPZryaequYvqrmj1Ul+0MJxBWjzgfoKfgn9RQGIAdqzTqLsI6gHLMmiWMyMsuZ3dVXcRV8fnMT+lW2uXiWVYyET1eqnY3M2/wASc/VXjyb+XnV5YgxEgZ6RQAfGJxFTuiagmSSTXKPxT8nln438h4CM8+qjv3MRIOOc8qne1xRPGtp53aJFXMTuRcEEaemgVgRwIkUbgxFj1nw8o/E/7R92734rfOBdljUiZXUeisC29yA2OfnP+tP9w+YflPKFe6uMqtsaATFCeTWwTwIFJHIkcPlKAUISyMQkUMS21nMZ0Q6W1OIqonWm8Xahed2UNiClp2ZMEyMuI8Fpjo6lPTr81J0o3LlxU2zsyzlIoC5cVJ0k0NpdVJ0k15a1bY6bTjUcrQW/8ymR8a5QEcNv4suoj5u5dHNe4Svdp/L7t3/xW+cDuXyyyaKxrimIjFl6vnF/ET/d8xhLsvjGO7/Eaa4VZrh44qBZrtqGkCRI4UedB1E60AQzx9szWrdRz1rJrg9NclAxYJft4V5AKmvjMz6q215MzovV6uNQOVX47SDXS735fCum3v8AT8K6df8A9Pwrp1//AE/Cun8o/L4V07lH5fCumcoPpHwrpV78vhXjrt26v2WbKoHh3cIbrKzU8pY3z/m09VKQDbZNGTKK6Vd9S/CumXfUvwrpt71L8K6be9S/Cum3vUvwrpt71L8K6Zd9S/Cul3PZX4V0q56l+FeNu3Lg+yTA/KoGQ+7dzEjG25xYlEwa559k1zz7BrnN7BrnP7tq1ue7av8AF901aXvdN8K0ve6b4Vzb3umrmX/dNUYb0/hGuZf901cy/wC6auZf901c297pq0ve6b4Vpe903wrS77pvhX+J7tq/xPdtXn+7atX9hq5zewa5x9k0qojiyhxF2ET2D5jL7b/7j4bYtZL5xw4vRWK6xJbPD9nw8lXzt4/l8+qHnNMUC3EhaxMYHgVTq2ngwzn4Mj4CeqsOYP8AQfHwETmPvP32v5/Rmezea3jMldRNZcrj/wCusuXAf/UK/wDUF9yK/wDUB7kVny8e5FZ8r/8A5ijee4126RGI8B2fO27lqJX7TZeqmFy9dWTLMG17qF29dDxIrGLoCggqKZLzrdnMYuBpWW6iBfMGndVtrVzAyUx/adQR/WkuF4C5FcZM0pt3MBGR7qGC+Aq6D+RpQjRBzExPposbwg5Yeyg9u6EOn5D4U/8AxI3u+i5eAVw4cZ9c1guxlpBn7zfsnF5A/hJB+P3zVU1xD1Ubdvk6toZQQO2kF1Ao4lVxeihi17fqXxlxVPVXPPsmuefZNc8+ya559k0t0nfUQDhNc/8A0muf+Rrn/ka5/wCRrn/ka5/+k1gW6MXUcvvZidsIrGls3OwUi7OQQSXU5ChmwnPNTp191TMIJ3jl6uukVCSXzGVb5jIn1UodsLNwoFruRzrCmI9sZU9skgoMTZUOdnnzTl30G2uTHCMqYW3xYNfpQFrK5cYIp6qhB3sdT85hdQwpkcy1tsM9fV97MLrIpRgEJpVtWUZDdHZQtlMhp2UuMu+EyJahjUNhMiaBkoz9XnUVtW9nhfh11A4njxrG64j35VcVZP8AhtJJ9H51g2tzaIJ7h/YoKsAx9K5N+J/2n57lI6iv6feuA7J2ikS25Us4E03/ABObHuq3d3HcTm2cCjtbmLLrn01tto2kYeFAW7uBVT+dI23XEmQ9VHZ3lGKZ+NEbTCuPFixYm40cV1pIwgzC06lgWYlponbjE0AnP9fTVu8Rae4BhZz+tNty7E5yxEeimvbRjiEYZyqbdwBDEzwzo2wxw4plXlzUm9ctuWzhvN6qxbddIioPKjcnXDun0UuKZjjr9C5N+L/I/IATaa+Z/OiwW4WNsYU8xTnlWE7ixrhjF+eVOgAtwu6pUs1JlcC3Bhecoj40VFsZDK2ZLGsd1Nn1Jqfkcs/iX/b969xcZ6piibQ8aclHbSDZ+UOM42w4VoRZZB52IR6qfk6lUJG4YmrcA3pGbREnqFbZ7e6QYUfzq0LgtqH1g4jNAKkzqZ0ptoMgd1jkWHdW9ZIwuDl2GrtxlKgqsdXGuUWVZUdQSsCcqAVDdWJxRGLuoO9uS43QNPTVtLgRQ4804s6At22uFuHCtsqjFEw2UUCtouI4Tn3VYe46ojcEUmj4nKYXez9VKxRmuKuanWaMWRCDEdd7up3FreuRhBMLAHbTMQotzC9fz/JvxP8AtPz3K+1h/t+9ckgVjdgq9ZqHuW5XPOsCYbigDmtvV4x1BLlV7c6APHjWdxc8taIlVw5nsrGrAr11b2T23xT51BrjBAftZVjkHONe2iCfF4QcXVr8KENzhINMGuplkaGGI7PkzAk+GCAfoGJRLIcYHXWO22IfOYnYKO2rl1xButijqHD71wyhh21bTgHByyrZKCBixa6GmXDzhB/v00LitBHWJ4zUXBIrCEhdIB1pgVcJHOLTiOXwo2WhlOWQigYLEcWzq0DzVaTB7KiGjgMWlZT6+/41vYn6p83uoMDzcxlHr+lYykMeKmK/xfet8a1ve9atb3vDWt3261ue1Xn+uvP9df4ntV/ie2a/xfetX+L71vjWPZy3Wxn9f+Q3aNabLLPSDn+QoB+T4E+16Ka4tvFgQFc4PHKvF8lcqNS2VQyhTPNgyO/7jG2jywnLurNxoW9AoqjSRnp88UB3l1pjh0uC2M9dKLPaBYkhVUzprVstcBZ8t2i1q0zw2EzlRNxsOHI98TSI2JXfRSudWwlovjMTMVgBM92Ro2jai2FxFyaGLEk/aWpzwhsJMZUbrBoAmIzrN8O7izpmx80YjlW1nd7eFSCxzwwFMz3VdBtYVSM2aKksQOG6d7upkWd3r+UMNsv3UrQxHUomaH/DXQT5p1NHdY5SO2hsvFEJmpbLXurC1ssSxJw99XIQGDCjFmafFYfLq4ZaUt0poCMjkebxrCbbElizYssAnKg7oqyJEGlLod/7T5TRY28CcM86e0lqSGwAk1dtCzDgRk350u1xxbOKDnAwtx41ia3sz1TNBNjebrfDlRY2mHV20dlZlAs4mbDWLKRkQOH0mUYMOw0WdNkJjeYZ0FFxSTmBNYzdXDMTNY2YBeugouKSRIE1AuL3zlWEuFf7JOdYlIIPEfcHCmXpmldOdGFz9uraJKKjYu/srnynBY0+fN0hMehaiF2OAHr40XsvnxNtqfc54g5mvJIY3dKBxlLhHBokVhuLIrGtsA0GuIDFB8COIgHsryY7uFbON2IpfFpj1WczULaQZzpTWFCwMiteSUd2VYiktESalbag91bRUhhkM/ljG4WdJq4gJ8XqYy9dbRuUA4lhVLCKItqABqFodteay6VskwgjzRQRnUMdBQN0JlpioCYY+adalGDDspcTKHbzZolXGEtOvGldvF4uvwMqBF6wKyzHXwrALuBm0KnOhgtk7PcDYP51Kukdh+kwBHdQS4rXADi32msUEQZG9pTFk2ZB3QTjEUEckxnOhrEcTNMzioBpdVyUMebTxaDE9Z1/uahgQzEsQTP0ZiolgMhQLRtDuYznkOPpq69sXbrNDCchQbZBQRzNc+01auTrOMQN3uo4balBoCcz6al0w8Pz+pZuAA/5TNEtcMXFYoPsnWDQYi4Fv5kf+3HD00GvtNu4DC/ZOudNbtWNoFWfTSWWNrPVyInuq0AltS4zxGFH9aFyE3zliEYe+tqAkFsIy/Oaszb3EYEsumnx+YLY2M8DoKYY12TPtNM+6nS6LRc4sJA0mkwXMECOI9NYf2iVHDMYs+JrGbuROaajTrpbyLbDRDMRnRx3MXpJ9NXba8olVMkZj0Vsrx2nXNW1FxbeERCSPTSqLrW+srxq5LtLiMWLdHoq3d3Ll3z3akNrnIZzMCrmz2dvaQSV17RTl75mNwyd2g9wyz73zAxorRpIoDFhIMgjhRxXHIIEjrI41dnE2Mb1LOZcYmJ4zRbfxHjio7MXXaZgEa9dYwwM9Yz9dC4yyw7aXaCcMxTYXZcYz0NYd2P8oitXzqA9zrOetaEwIWTpV04XUaAMaYlnl5nPgdRWEhgvUDFSpdY0g6VcxO5VzOGpaWMQCeH0lizY2GekUlzaJOHU8dKcXWLcYDRJmt07NIyEgx/WsN5TIOpOv08qwkGgiCFH1KWtkOOw0ps2sYOHzogmruK0SELZpnpQbCok6zlHqrbYChf50goQBxnWntA+M2ggRouWf61tRdblAxlSMPq/lS2SpuuOe3NihgtsB5xbKPj9FXY9e9ET+dFr7R/lGlXbaBmmMBiFWratIWN7dnEfRQ5Oxa1bCBclzOXXVpbaMoA87PPt7KP7Rh7MPCtMSo0jPnUDsxdM7yxgj114wy3GPqWB9OLsYUZmtxpok6CpUyKi44XjS+OTe0z1rFcYKvWawbQTWItlWK2wZesfUQXCQA2PIkZ01qNxpkUIXTPMk1hQQOr50qGBI1E07Qd1wnp/s1j/AGZufgjEOuKG02eIcDGVYxcXDMTNEF5K6gcKdmOBFMYjxqcYicPp+hDdYz9kTSnAWkxPVTYEZ88IIjM1cTC6NBHpoq87urAZDX4UbinIa9lEjETIGEDMzWIvH/iaxDF6qfyYtYMSsW11rmvrAga8KCYSoIkFuNYgwEJxq2wtuTc0AGdB2MLx9VG4oKxPOGlHDbdyOoZGs9mLGDFixUTJEGIrHhY25gNlmaQ4m3xIAX63IkjtFNZxHMRLU2xdiGOe9vR1TTYwpt3Fhg7YjQRggI+zpRuPenHGKMuPCrZs4AqkscUkk0jKRKGYbSseKMxujm5DSlBZSLc4BpPfUuyzhC7o17aba3doSZGVXCsFcZA0yzq0ji2Z3Tnr21lgjTCOH951auXUL3EMHC8A9tEJhA83q+NEX2DtOo+q5AEmtpnMzE5T1xWDaXIDYvKcadja3m1ac6nk6Fy2c7SP+qrmA7hlGGEfrSRlgyHGtrBNzrP0OLiBx21iFtMQ4xROASdctaIECeysBgnMmBFCEAjTKuYvqoHCJGmVA7NZGQyokKAT2UH2a4xxis1BrNPVlWngwsgI6opYtru6ZaVgTAh05s5UEwjCOyicIz7PpsgyPpRwiTTME8ZHNGdYMDOztk7T2cOFNtLBwrqwBoMeTNzcx6qz20upxSuQPUvdW7OWWYj5WWVK5UFl0PV9Xkl5XgI0p0gYGuB8U/l+VLHJkWLhcqG16qmFVPszSJiwgZSgxGmxCMTFvuAY1oXLdtxcAhsbTjY0tx9qSykYVyArdsjubh6aUNYlRziOPaKUMIP0qSYFYgwK9dKAFZSszi17quW7iELmDGfDiOFZ2nt4ct764ZcLZcSMqdRhx7QIq+qvK2cTOVBjIR6aKEHFhzI0kioYPcZmyC58BWOxayxgYmOWsVDbx13OAisQDbMHeJH6emlS6pa6TmLY5tAWt7r/AMvf9elpxIKx3k2amMOczNKVOPEMQgUHxrhjPPT+5qEcEmsLTkJJjIVbCEnaGBlW65YzEBTnTEXMWHWBSoW3mExrW0ScP0SDTW8AII5ulHa2999ZaeNFIlWmZqFLelp+uWc4ZG6TFNAAtzEbPWtqqqd3IxwqWtAYcssuAom6ttQ+6ZGtZBGw9lTciO6aFyJkSCMqOG2E007p+gNcRgwA4Gkc3UGLtoguJWJHVSjaAF8xNM9q4jt5onWgbhiTAq4csY5qk601tXBddRTK1wBlzIpytwFlWYNA7RdngJJ9VKdqm9pn9RkbJYOcVIt4f4cqHil3chlQuhEVQOGs08rzxBrC5d+9qVWtqW6xUYAB/lyobPEncdabADvayZ+6BYTJ7aPjPFlseGONCb++rFgcPXWPacOA/vKlhsQBnCTh6vhTiUxE4g2HOZnOgWvEntH6VjS8+OZls/71pLsq2ER9mPRRGKdP0j6AVjI15Oe8nOs8WA6qWyPfWIFhlh68vTU7PhETlWzYkT1VmpbKM21olGMHhA/WnuXBJL4hn3U9y4sg6icurSsMEdsz+vdWJlFxxli6vBJ+RHGi7GFGpoJO8RMVH1yXaYHVWAEyez8u/wABwsDGR+6DkvjYAmYpCbwOXX+elX7dzE6nNWL8eqioGFSsKobJe+klyyAzKKM++kOI4kOZxc7u6qX9nK4gfO0raC6isdTGnZ+lbzw2KcUyo7hQRoNzKfXXleOeevdllV0td54ywGIMVFxcLjSTM06XyHkSsNEGsKBbdyMuMVOJwUXdBbU9tYRcYGc2cAU95LS7R01LzBzrZFzhOpuZVtcSYow66Z8MqtPcVbtxDHOgR11c2xfPQRuj63Y42aevhTYrxgtOp66ukO++PtnWrQbNE81Hj104C2whMjCM/ueWOgowrs0wFGpqylokLnPblUW8Hmzi4SYra8+YjDxmir2nGAS51C0MKuZ6939aJwMY4cez11bVrTWw41f9KUMpMgmjbViHa5r1DFSnBikx3VdN3BgHNCmSaYJbO4JY/Z+NXMFi44TjwNbUMIiZ4UdmVvwwzURlxyo8oIg4SwB/KiyyI6xFMZIw/nQRQSCYnt+uTNsqBoeunxJAVo1zHaRVy5bsjCg89sJpYTHlnHX2UHdQuLMQfuhkBlWSgUQwBB66iMq2hQYuuswDRVlBBoeKXLQxWYBipwiah0DDtFTgXSNOFaCiTaUzrlWFVCjqFZCo8BVIQ8DGlIvFREx95Ma6doimbctupHiyOBPXWG9CcDnxy+NQwi6ylwOrqq1sSjFjDYpEZTTKLsldYoNtNZHq1p0tknBqeH7mYNbIWree9AFYNlbODKMOlY94HjBiaHiE3cxlW9YDBjoFmk2S2sJgk4eHZUriHZiy9VOF8w4T97bh0CLiEneb0UziwWgTumpe3g6s5qCdzmaTiarqvbZEt6uayOI9Ufr1U4a5mmtC0mEGAd6ePZTFboOGuTpu4mHjP8u7NAlVNp8x1heul8aN8wtbgN1piF4ZxnUxHYaddqJTWk8Yu/zc9aYW3xYda2EnH3UthIx84zwFFtssAxTR4xx5i60HKlJ4GgRdBmo1ucEXMmrd294raaA0WzKLzmjT41ygbuxsgb1KhbebIAUy7SWTUATVwW7YhVxYmP8AKoZcD4cUdlbCTj7qWwhG0bPPgKDkZFyv9fypbheFfmyNa8Sm0OLDnu9lMt1AFEbwOk0yRhuJzl+VhDMe1jNbt/emRI9f5mnf9oxOwiTw7aKkGeEtiq2166bixOEzr1145mkNixbTWmxMSjH7eWHqimNtyFiF38lFMC+PEcXycdm3tGHm9dYrZQBExMGHHq/KsTsgtFmEcQBx/Kk2d0MknEfRSMh1Zaw7VNrHNmrm0t7NE4zQcNKmR2zpEULQY4zwjT7wYcG71TTIFyYQc6gVsc8PYaEqTC4daaE54g9tNhZgG4D+5ohBrrJoAyyjQH+868n+dbyzlFbRZRv8tMgUjHqZzPbUC7dA6g1HGMRxE4sRmrYt2VCTvZxHoqEYx1ZViCKCeMV4xA38qWBgK6RRaCXYQWJzNG0k5jiZpQbeYEGCakWwDM0uHEpXQ6/rSpglVMiaNzCcRniaKYSAdYbWpBaJxR20772J9TiNeLWOHXWIIuI8YqLiBu+sYTPvqVLhuvX9aW2QcK5jeNbQqS3aSaOBYkyflFnTAeqZoXrm0ZxlsgvZ/OsDWGR2y7J4UGw6oDhZsuHGmubNntQDiA0ypV2SA6tvTl8xDiaU7JZTSnbZrL87LWoNlI7qAIyFZWk9VEm0pkRXkk9VbttR6P3Fm4hDgdRpnXZ8yRhaYyosHe49jM20o3LjIvHIzVrZ23uC6YECmth0Qrmw0rEjBh1ile0r3QzYchRDXApXUHhQUOMR4HI0XN1YBigRmD96nd95i5GOecPqsjhSoV3VED1RTb5AbONPz1q2yrAWSTi1P9zRWXzbFzqac0YyVgVhtqFHUKfN9+Dzq5p7sRrGyb3fTl02cHdg4svT30BJMcfvVnhQufWauDMC3qxEChvqSRIAOZo4rqiNc6yM05cKIYgR2H6mKs+MniRU3bgKxGEaCjexwVjABx45+mruFyrNpiAwqKE3we0ZflVoC8S13daToesfn98FGIoRoRRxXHzjLtHGrgzO1G9NOMYh+OHOo2jv2saLpddlfOJkfVYMaffQGwkyIJmtiVhrUKe/6nNy4wVRRYOMIEzRhjA1OEwK3cQMTvCMqDpzTpWKMR4DrNMEPN7KzoNORoYgSIliM8IoGCJ6x4XEbqmJ66yINO2AggErOjRWJz1U43pTPm60l1cTK5gQtWpB8aYz4ZTUqQRVtONwx+VZHjH3i8c6otIA/PMDKiccx+dXHA0ICg6mY+NHEgJwyMo107/qO1JIVQcx15U/jWOMQ08f60rveZnUDTIVeBYxd/LKjjvOS2RPZ1Vdwu+6m5+eVDeLKNFiIrZbY4coyFJFzFgyGMTFKquXUaq5OfbTrtId+c0flW1a/dxdhgU52t0g84KNat3S83MOrTK0kFkREyI76SN2Fwnd17e+sCEpMzHGZ+NXGJB2mrZzrNPd/aHZmy3gCI6qO9bzOmzyHoosbjNwz7ozpUuXzC6BREUb22JucDFYnF22q559eVXs7mGYGP7wyyK3eKJNpCTrlV69ewKNQU3Y/uaW4oVyNH1PrrZXUEKB5sgA/wDitrZAAIjd0o28Yxjh+5oOjjIRmTl21a2ROFOAeM+unW7dF0ONGHHrq02IbnBDhANN44M7RJIOUVlyjBJxHCIg9lXGtNbRriZkL51bNlOCJktiM/uZhbJcEZR10wKDaYomIQVjRLbScIH856q3uSth45caxNyXZTpib9aVspI83T6kCqwUnMk+ao1NA4iREndOXfVsWm1knEhp3vNhTKBrnVxsCwh1Zoyiato1qLTjn9VE3QLa9WeL9KAY7xBbsiaxbTKY0q1dePGcZ0oEXRn97QjuFZtBVpcaQ+ck0+1OWKFNMrOFK9fdQwNjLaCP7irT7ARcMYcWdB10+opg+s1dsJk91DJ1plVFmIYVurmKzItsN6ZpDca28mQWOp0pAQRiMBcRj1UcSz3k0JTIcJyryQopZwIrRPZnwq0i2rfDGfh969ji3+qPBtXXEMIGvbXk/wDUaKgFZ6jWDCf4pzpt4yRHV+lIm/hTQYzQVRAH1EYVPXWIHxpbEd6B3Vca2LdtriiWGoPGmx3yMtyGO78a/aPF7S4vnZjUR+lC1cW3ehschimdBrl4GOoxwj0Vgv4AuYDEz3TT8pblIRGPHv07KQ3OeRn97Q7KotoCBnmf+UA7wy1zouXXCBMzWO3MdoigGYCdJ41id1Vesmmi6m7rnpQXaLibMCdf3MSpkeByMnYyT1/3FJcYy1vmgCAKi3fIHaJraPfLMNN0Ur4nODQE5f3nTHGwUmcIAiaYrni6/wBzFx7pabjlsJGn7oFt5l24Cim9umCawrbu5akrEVuiXYwopZupvZDPWk2eG4WMc6jO4gUNvZddbII2k4uFZsPBjtkOTkuepoNG4xwoftUbeMBpwxRxXUGHI56VdIs3CLWulSZXODI5vf8AuRxvOcSOBisSu5Pop2HnmTTsM2KFV7K0Oa4SDSyMeHSYqAYzmDpx+NMHutDLgwrkIoKMQXiJ1rD43DhzckZ8KzwmNABAFRbZ7Y1AByHdSFLjIVM4uJoNIMGdMz3+urq7a5F3XSiHZ3xc6Tzuz/kxe8wkIJoM2HP7Jn9z7oGwlhE9VKmQgRlp4c6wznr+51m6hNLNsW8sU4deyre0tJAOYZew0WCGYw4nMjU51tQly4wt8CcBauiAMdM5rorZjLvildhtciItaTW0YknEMRGug/KgrJcDRJxD9ytx8WHCJmJpLjKVYjMERnUUFGgy+Tto34j9zBtvzTrnUf8A7Of/xAAuEAEAAQMDAgQFBQEBAQAAAAABEQAhMUFRYXGBkaHB8BAgMLHRQFBgcPHhgJD/2gAIAQEAAT8hilhMld60iME9JU7ev7QsoIdKgsEbVDYxFThhJhioJmL71LwE5gq6sZcsUYRO1WkhDTKCu8UFYMFM1AFsYpFChmIqRmCcVhToKiixakULBxSqQXkrTnKKWUBcwVNNl82rJYvmp7DlFXVvObZpaQOyoIgLYpYIKYYpBYFKzF6MIOhW8TSKWibWLVLIzvFAGCuJmcVwF64i16WUBcwV5pIpUhKGkUWgIiGXhV7ZbJe3NQaFFoBFjKOlSsa0DMby2aQSEtW0W0UwpaMWxQNh61wFqHKAXLFQ2MzQeCTxUNjEVhToKmnrLZplAQ0ioXQTv++iWALRmklnvQCNIOhJbyo29f6eju1Hdo//AKhWBgZR9UYovvxUrL7c0kyHvzX+yojx0DaHwlJaqQxlDOwgeqG/yrBLS7GNc8WGkazcCv2f6VA+98Kve58K9++lC04pWXU9hMXu2/ob3wGPOr38LrK1Xn6UNgsfNrp0S1KB3+Qvr1FKd7HegAAgPom3eASNFUpKc6vIh/QsbntPyEV7sohKC2clSA3LZooljvJJG9ApBMWaJ6lnRdbeXx993V5F8iB6P2D5DqDlOhSALOV6jKpvkA6AlqyqQmH5PMP6F/etvyMmmNqZyZ7UEE0UyF0k2vfxoAEvmAItBp2aMIVK5ctq1tTK8BIAtix1+Pvu6vIvkyPD4Pkk+ghjNIWQspbFKqQsphVfdj5Z8X9C0MYnA6vwo5g5DU+kUzVPVsfehAOPkLBpDll6fTAmiTcAl/QpAIkjU1M908EEyfJ06dIGhBYTofgQJAgutQixSJePg+E2GoLCMf0FXPyxZhuJCGEd6s4+EnkYp0A+AuRQOF3mKG4lD2l602HH97xqPafvQRv7LmpdksyDuXyo3IYDB/RNyxEU0lhfCaRKSGaQEe0efwcrb7FCFt9n6ksEAGigHttSiso5ND3Ie/w9q2f0sjYldEZgz1pkwqWW1BecXvv8RCdLvf8Ade5fn4DAylbPObkPco5YugmNkdR/lCQsHJn8A1716P8AZo/2fgKAQ7QsWKMGeokE2TFahVLFzi+Rs2bEML8B0IsXs3r3L617l9adJvbvXtH1r2j605qGKl4ClRRctDo0kyCB2YDaso5FvHwV/hfxSLbw34r2X8V7L+K9l/FEtw9+KjjmEueX1CJUkL/FeQMgEjt8FAlsUYCNGXHg72mk0zN7SPz8SQdY/wAufdtj4PNjoYk/afCtdX+WT5EeP1MbcviY2yHEkdzyVeVhLurvn+jWBasl2fAhCQhQe5ioMgOMQS7AN3aaSXgc1rLg5qMY6pgw20DyVFQ1gTcQ4ijCJbG7CQi3fyqxCdBJDgW3x8P/ACs1BKwU5wdlf4up4acQOK/xdA02iBdjHck71KRjrmfx8LCoEeH5jMIsw2lDSl10e6k+HxyyHRJa60J5PiWHiBm3GPhD3PheTO6lMXeJZoag5DU/QOIUM7BUf9+UJAZHf5gvFgOonk/hPM8FBREnDEsK17AJiTZ1q1akDMdaOA208uCehSByIWxMxO2H9aOMBPKkY3Ub1nzR/g6/wdGF4OgMVBiD7NvhAgTJtUBoa3NjDLa58oTdDOZHq/TQQSRrAgy6DD9AqXvVkw0rXP8AD/iltHs/FPg7TfY7c17f/Fe//wAVFhIOte+m00QwwOo8KT1UvSgRGxmP2ihRHoP4SB7isKqTWEp3LBgA2BpAfmaNSCkQhniKLdAzHfVnlwFSqTHiODmnaBQQN1ul6UNShO365kQJLBdWGko+CFmKMD1zSFim5pDa12i7gOQANTfNPl3tTq4GKSQBuiL/AAsuZ+UXHLQMJg20d6jygZbRQ0ITyECGU3ig9YQc9RpmpFMtbbE36NqhVRTBbj80nXOYsiPvmopk8oTkhxZoxC43JfPSoGZUDTMvS5z8Hd3/AEmWlwfiLTx48/HmoOAfYTwZO38Ms2GehtOnhTDBRsEq0Bs4vUfILJAmzDc5b1LeKsTdZzaznt+vtKZj4BI21mCYvUZMBCc2x4VyUku9ZnxzV2PDFvbSzsSFxLcM5oEKPG3gfA3tvlWRtqg+hoR1oYFwg2qEoLilJiJqMhKkTdmLaUiCELJ71YG5sW9xSRKwwtrM/eoQEJoM70Egba231oyLRc4dicfBhOfmydGzk3a+E0cb8Rz4MVbhl1/JXvD1r3h60CQR9m9AEAe7ejZtihqGbj8wmgHdLxRgQhohR+wd/jaIlR5tT54P8MvoSgCZ3xVtm7RlfXs0VZKN6M8qsH4wjCxnNqkMzBFfMJuvSs7VRdGTTNatqBh8MnehqRFvkJ3oF3Zhk4vEU9XOZLAlRgvTRUtwN4k3v+on5HBqXKOu1Ce8eFOR7jivfnpXsD0r356V7N9KMb3fFANRNBn3rk26CUrybeHy3RVKwkJPk+mzNjAytA3a09UOysv3+aNzp69EKJSt7DHeacNJ4IraIealYMwg8hND6+oake3DV11dwYCHLNTzBAb+29EbSSw0Ai+V6x91CjDCQ8Ad/ltOYPO+b48bryrkxeX0DpysBquwa0LJm9n3aSPR/mpf8n5qX/J+alHovzXtj1r2x617Y9fg8ZdPBEn5D9616iw1zSsCOyYOCoCRYEEUE4WSkZYjXikgB3d2ahLfrfVFRHXDI270sh8ioYgBVtu0SI1CSfeKQXI2RuU/WOSsImvrfZNOJMz7fRMu0ISNN9T6HQaU0+z8V/kfx8KjAWTwi8H3eHySJHgR+N+KQcvX/mrIlhLOk47fPIPAppMiSByd6GANwCFIkEYbRUUWzcz6xmgBINjyVPgQkpw1FcCZLsGa0pVG5unSSyeYmgcdblwLAbLPlWAVchK92uM6WqDEOn5q5/s5rn+zmpMz6/mr/XamyvUoNalkaQsT1KQSFbLSqJ75rQ7E38HyZ/umYGHKvl9IE5YBIlSAWVnOD5E/eWUj7fVCJuvwaG85TNLe2FvH9gTlWVQVFQJZ95zXvr1oaXKAityhFXeJCIhOx9ZxxxxxxxxxxxxzlGGhmW+62r2F617y9a95ete+vX4Acp4UnzylQ6MJyUWww2XxTXvH5r3j8/JMkklJQAn3d/ijeTfLVxY4RK7AZoySU6hTMwBNaQiJmj4wVC/CgCzOtainE8CvkNMXISO5Q0EQR5B9a/AwLFIhcAaL2xUkSiIvHeHxqbIU97tUJfsI0CtPiXL8AUZgTYmpZlrJOoY6N6TBTLGeooSa3CB0VPpgpeIxnrSHK9g5nFaQ5qc7PjLi/jZCsyKBgWG9/KgiASi+fAV/jKUy/bX+JpyH7K/wlf4SlyFu36KCCCCCCCAWDq/wlf4Wv8xQVzwtf4z4eETFNoiLm5Mz9FDKFCYT5/HVxBKyB38NGIaSw1X706S1IxFvUrbzhyIeA1p8BnaZT8TTHi43IwiGjSpEvWLqd7dA8d6WyYnhEYGccUjI2bYBJHBilWYL3Z9a9j2KifkVLq/hA6gESofGraTduzwpaRZbwm7yqEkJSk9YMdil89QoE5wM81Lc2mjwx0Cr5LMzAuUMH8eRYjt9Qn2XmYInlkxThiLThGYt2+ooEZ+gCI7MtlBaQVTXeiNWa0cVPIzIkYnGuGkmMBMKdKDAAuRk3zUsFYXAY1a6I1h4qnaNZDHamH4Ij1z7SB9n6QMgC6ulCD5XyIHwimF21TQaltU0Jhe0lh4lGyU4m/txWPV65EEPknb6WKzMUNxEv42ijm+31JCAoEEOcU5iIXkQwaPqRL2Q+hBAycgbRUc4clP/AD/tMAV0oQvG043qE2GbyTdczepe6kZWE9WlZOHgJmHvUEFGJQ3BkMRZqPIUi7l8X+1bYPIS9D6tPFNpmI7uHZiulEQniU6AVJ0e3yHnl3+jU9frKQXrtTpBNo+oBNAAACwVE5pDkGoK9JZe1LBPgtPQWoXzQ2Y26VZj5YdCBgwE/IDowCBY7yBOoCaFABYDT+N4EWItoRC+kzzSDD7PivcvpSet0/HXvD0r2l6V7X4PikSIa/u2r3F6VxZmLseFe4vSvcXpXuL0r296fIkSbPd/FXu/irl9zihdDr+Kva/pUfv/ACoRiFiWYBu3vPH0IgLHxC9p3F7MDvW7sgDoI+PR5dLPX67zWUOmfvSqQGdVgpcE8rQgkZKaC6g3tPwvIIkxx8J0CcfAUcCagCSSDtJ6fgKUOQ2/k+A+w/6/TRF9jj7gcU/B2fzSPbXelND3b17O9aI/ZO9CLC+7WgtU6hwAx9VR9aIfmqYViDFjbYXPCm24gvrqbYLUXS5ZbnGOZqLbg5MfLo+VQhAIF64bc5qFJTnWSKCjXSXXENE4orEGxeVmc9BmrmiJyzHNrUumeY2G71LRfNqyIhNjjELm9CRxsspI+550cm3RtD341kkjCaLzJtOLU7EZXizGqt9a1VWsRy7/AMmDSQl6zDwA+H8zDOVPKxdeY0ohGSHcYnpUyPikGY3SRe9MJTXCHy/ZUoQam/hXvv0r336V779K99+lK1WYuOdOKwD9nFc/3cVz/dxXP93Fc/3cUgTP2cUNlOJk9J/lkJGGWlLO0Z2mScWhIa3tN7UMmEjC8jxVKsgEmiDX8FFGxuQsw5omXEnSMqEHT4zS8X2xQbIYQTWmhG/omJ3hqdmMYAevarLbCUlGYmy2NaHHuIlbfkoRyUR09x+qeIWQmTr2JauSLvH3XX6jJx0ae2eayMrwT+WQBTTHNN17YCxfM796mD4kdEW5MUAA0+eiskFwDGLEFbVwmHeiCdpD5L92oBFr2sCJ5s61M5mZVdx/yiiw0XojGKL0bypHJouCEyklHpGeqgox5qk/l8/1UbhP1qD7SP8AK5xDhnzprkjOLdTExHegwN4gQbEs5mTzqFg0FWVEROUjjNNSZgzk63Y6FSnauf4qS+Qxe8qWNbEd6gYhYncKsN8NZkFIjqzA30rZhrWAQSbPak1QQBht3lvprUeNpNXesUvJSAnHVKLbVKSQFvcgG8HnUgliSl0aeFLasy2In81gDylMJMdS1Cg3msGrHG1F4omi2dg8lPk7KSYbWeE86FKbLQBf8NdKhMEgZj3R+ibZ2/J7i07uLhjo0ssaQgZHw5vVnAJnJhaOpSiCiSDBe2dahgnkvzTJiNFQsUwCFpZxvrSiDYEYN1fkU9G8n8rltKJvsGRdTwV6KlMBfWCf9pOLiW12hup+e1jWJvcjX81N6To8DEZvrRqMh1lhuOvWsT7asQFu29RitljQPa0NyDo9agA1pKmi2y8UUPwsy1RIb1NK8BoOtnGnjRHQlwr0siLRq0Z4FXBVMnDegiRi642/7QMUgwLOV0qDvDLhLM1Y6dUBdxhCWjetc/8ABUkGaFt8YSWZkSmPFpAiHIaipK5KYDa3PWhjVRqcEYa1NFqBVQxO0P1zP1izzd+T+VxRu6xSwN1oKk94AtUlLAwSmcGpbzqKAdFixBREGA8CoBYuEm7tUIRCCQhvRtvvFtQRJpSSxoc1HFIlZOlNhb47oHrRIIRWNxdqEM5ILDeKhhHGsw7VhFm2j5R0lkQu/GLN2SaCCD655Q4NmTuSUOAu2nD9RuY5VU0kWWYQlzB5/wAr4CgJKhQvmVgbdLVbYouQRc8Klkb8srlmd7q4p243WTi60UeEkDHvFRBMEmhhnwKu+l62o7pmmAAUQ4dIK3aiMIiKKeSrAlxPvei5cwRhg7FAAW67tXno+54RsyjAsYqeiJAKmEu1y/ql2pTG9UzWfeylc33XNMo+N+tLM+I34Ac6deCnbR0jS7OfBUrJ7HWoyGykdMPCGdNH/g1dkkiDcwYCWAOrTUVtJZm7EY61BMVA7DLBGfxWq5hNtpgTN3woIoRRAw6umcfwYCN82Sh86csPzBpQwMkff60nvAhtUFSSGov5eVKoVqlJk2xbQoimCAc20zFyrv4yhG8XlkociUOYwObUXG+Ejuq7dVACzWfoQVSGYdYpXEGAtuVDnVkDGbDxNS+Fz+4s63tRt8xd8FXclCK0v440pc0BgsYbEGt7WqCIkVbLMzTfRzRanli9S/aAUp8ak/2v7BeriuMoiemvf5s+BvII8agLd5mrKXJmQEBBjm+OKJSPgxjPYuE1OwyhCWUT0HDU1idpsWqGsZ6VOLDe7mJjQ1mgSdYxFFfd1npUOJ3dZbrMUgN11cvVxTUQjlsmtqXXiregzDEy7UYLIk9Fi5FqULZUCyCtrF/JqWwClktLhjZpyQx4AdjWk1854t6nBoGKMfmkYxcQ6zxrQp1aAExIfbxqEWdoi2/UYJa5fFNVpKZyAw45oDVwDKb0hFHUNqQb9m1RIjS5N6JIF5xEi09yoRmmxsNaDYLJI/p9f2lJIdaVyh3X3UcESqyE15m9BmAoNLlcNvCmYO7MZkzn4iCRn4zH0RHQZGR/NypyMlYJ3UdSDHRbW6FBKktxa2d7U2c8bkcUtsAWk/8AfOsunMTFOlfUKXIlJdq2SLJ6KumYcrzRieaeiEGLUVwXtvMy8tSzceS4p3ivvQZ3x3paFprc8TrS8LkxbVeFkzo9y0BiLIgODHzKGWKzasSRLxQYGrQfsqKNNYzaU8KwGJZnoa0AsQmGzSsVdc2R4qZxs2yDpWUK63aeYVcC3SaZpIpZgcVoySXJV4CkyRO1J+FJhAnHjRFYILZnEb1MoI6NIpZeKR1pROAmPqq60kgYbUClWJVo1srUCxIRP6lcI8IpRh4EuqwIpAgfG21Y4rMAEa6ZqbYQGwmtqsY6JVMxE2tgipQBDJAJFq1IndFXtPd41dBSDJbE62j9NLdh3GsNYGSbkWTktAgXS20kWvQcsZZHqCzxWWmBkKlrr9+ak3ckrlvJxjxoJcCdMKQbSx4/sjMWzVjN0T0FRXhHLwfsUFtLy5u7hB1pRaO9cbOi52qDksgbqfwdZoGKEpXtBOSjSemkAvOynyo4XcmE3iU3kOM0gZjKgO9h7ZK1za2V5I6kvL6Cc+t4FWnBRKaRltIVndCXO69aSo04GBtoz0amoyNQLrDa1rVKcZDYiclkL1fGCZDEJzbzouXMCMjW7fanu7tmzTFts1q8kLVWVpcCbRbEtnNr0KeHSNjbxonnRNsbXMppIoJAqtyENLGOaTQsA6dTWlLryiVrmgw35pt+7SPNdbmM0Mi32JwHER9DLhzdQ0MwiiJ6NqQh7SGwVs+VbMHJJcsmzegOnWgV16M2BGsWi3apihwFS1ttijeMrrvncbVYRyFUEcYpUtw4Tr1pZewWyTO5JmpYt6SX7lpWZihJJeMMxOtYQEwQhRExFrWtFFqdVBpx0gp5K0NO6pG85b1ZGRD3DxtV+BzbjO3VqIkCTlyoni2xWtkYgG0/ap0A9gaIIAiT9Q4sw0W5xDwUyVlcl0otFmOxUKYsirwiItG9FjZEMDFy5LLWYqdFjBl52WP14QBwjqVj20P2RQJcUHVc0u1AWmleA9taiBmKWcpCPGkidDJthZk4aTUcgoZ1CYen1cd1GIoSMROtS4jKsWwg5IwGvmpWcXYAmO9XcUSRk2PkR+hZI2JWFhbIM00IlSIhyOfGkI2ZBARu6+PapCVmnSZLIItQGIAZSN7UL2zVtGKMbbqbZYqd1oPcW508aklOhFK26QW5pZMCZEMFpHXeikOeCA4P2UCAAwH66CwZNinCccmp1NKcOAlaGlbCNKkgCnQWDzoZvR/gpUXZWCrNk4jZnF8VFPni+M46NBm7Uk+WQQnP6wAxS4G2F8a2aUHeBvN370k2lwbpCauy0ag+Bp9XCxsuKmpHWEhal1sTJepvQnNelSs+nlQ5N4GJ2ovkLVBQnzKBtIakdPg+Fa75Qz0foiuS0XYdanQ0wY5vFLsQLkJ4gv8AejXBNYsC+HzxUxZSm7X3XVmY91AwKCRoI99aZ1GYhL7kdGppzMxaxvfrRQAwQLvQHGKcu5ZjOcCZzvRoO4IlsclNgC2nEzalgRloWlTS71o10jgq3NvCrYgEiUblTnxtgGJ2k8alm3BdXMxbypVoGeJlJ6f5QibS9m1dt32pCMywXXPg0IBMP7tlUkahSlMvlPehQZvUrFpNZdACDFotvQkasGKCTUkUiAgsxQ6y0kBE+FNhWAJUketSCKlvTAJE3xasPXwyIkrouKOY5YiGrdowllLIJxUm9uIQQt4XmnS0Y8q6MxFBcrAY7bXly0Y0oo9FtPemELmEkbuZyxRwRIKCILR1n9rFQsiGaQ0TZWHgJoQHeBN0/ejyZZku9L7SxVyJdq38KAG4CYuWTFCBmCQDAJcetQglltd4wf8Af0cDkvBmg0IIAZK0+sKEjmhXWUMGHeoxGKICrOK6coFqvzc6KXYuRorRSqRsOayNYS5qfY5FJTnEXJqaHN73L5uUqBCGJqCbF881zGdZVvOKW7HMUa21BSOEVJXgs0IxLk6qwQfrInk1P1SKBHYWJoAqEiZetIFpNUSJtEX95oUjrYkhbTD3jWrTuSUhq1Jm6RrFK25iNmR1WmSan85qa8/mFYEmbVOTucv0ft4J3bPxVeD5zoQ2eCrd8BGrZpNFE1sxtk3jI3pWbFDjBttTnIEHMP8AANA22nehOSjEQFidFnTagQzMBw6xiS+aApJmDALXuu9qEBa6R1PKmaBMj1f1TkwXVbFamkg28aiIKjUbG5s60guZSlF25RAWEC9SLM0g5P3cIV3kXR1p7CdYJkx0VoqS2Er7O5irDZCxEwi8vWoFNAJBffF86uVGChHBLTuOLiAKyxOdKFhzh7XJ3WB3p7BWq6M+NIetJJ++SwS4q3C+e16S71GS7UBnipA8skjSXTvSEK88la0a0ABAQxzHXilLGxmjy6Yalo4kwty0W8gBByuEXLN+KtgCZTt+SlfW8koidOlBLpiSH9ICAI6NS6NLoPHFLaEsZIXF9y16Bcggpmc0+RHRo9J/ebsxM9LFvMqMtSyAtoi+KTBaZDR9qfMUCUrtkjeO1QLMgNeu9FoxEWWtaO1Q/GN7jmA1qMcyEpHpTBB48j6vrqBVgKWs8zIWKjJQwUmMVrqksFCZ7zUTiENkm/lVyAwMkx61E1WoVXa1WmDYC+D81h4B6Ub2d0dqb9C+LhMOzxQ7HhmSZGe9AyLUjN4/Y1r2BQtNWAFye22nFBqWRsAxTFbIi9b+dCk1/wBU9tAzYzcPtFF2mbE+586RHet0np0KYkRkXxUmiLlLLx/iG+d5aeGlMM4PHxrtIMVAwkMxlIk3zV7QUDZSCIL24U3EnqBMCbT/AKqaGBM4NxfbShTojKFgUTZt50YwFbrfToikNFhKjOUHWtVXZGB6P0C6CKEoxq0MqFrN7li1Bc7CbY4hl0Ki7EKYnskKZi1MVmEEWEFsWqCc3Lv5rGWQpHCCd8VcmFX1Lwl8aIKSUWhC29qEj1skuWiYpEFLOYsmbpwzS4urwCNgLHwkQAavyCORDJQGiymhTYCQdwf6UkEguDf95GhQWErLBRbRBUE8ujHwvSWwOE/h4VAw71PAeIGmxWfChDlC7UZtQ1SEanRAcdjvVo28tbZLeLlAmexOIUg0psExYQGyRJpIiXo7iHPlTjdBfYNhty5oFg1oC5gmYddqRjMMDAn7Vb1mEImfYvSR3dKATi+PKjmYHYi3fvVu5kkHRgJHyoBz1DMHpS2miBbroLmKFyyYIbRYmTO2aXszINMT1KRogxCXEE27mauVJQNCCywxs0m5zZrC0KJVhoGS0M3tx+7reVmHJ0Vg9zE7YmsEYtWMvQQYZXwvV09BdL60v2p15O6Gb9P4erMBLRaWBQylovEfbWrkpyxGgcX+1YtxaSQ8V6URQLAKyQEPVq+b4SwJiTj7lArjks3uNmkJGyJYMY9RbrtV5tU0QzB1dYpijaUICJy84o5pob7x4HpTzMTGYDu0YLdj2lkwVamyuRMtnY4o7rSRIWYYfeK5cqSN6z2slrbhNybTUkwGMF2XaKIjWkzEz0rC9EGLWxF+nSb0eKGPLiZepb95P2S4j5KgEEtMaYYFj8058WzHhRbGSbLKEEXjrUAPAyWd7Z/iBEhYEGKVVBZsVZKogka0hDSKmJ1eboVmxMJmrdVcpJO7UHrAkxV1cLTFa83iYoNgTlh2dKDQERFjSlHLWkPaiojgIKh4CLEFQwEbUAvFSog4L4KBgO7T+9QTOvwAEABx+zqIuCncnUffSpE6qcCd3U2oDOkreX2G+qjqCRJhCy7FQggRkWSOlA5zoBb7db1ZcFgbbm0UuR0H3f0yCBI5Gk5UlBwwxeKjsBomUP4qeRAAcR3Na6tYNmipAGOlhvHQaUJehc2ZaMU3cGc0Z2wpiGe+QPr/ACxQJbBQq0QjCMTItIomFtWI1WDwmoRJ3GYqxkXBpbwdD70AA0YIeGaLdwrcI9mtHhAkgsY26lNLcecm7QcVL5SOrH/M1fC7D2MxUvQ76Dy7RGvehBjlqvLMfejwi1H+A70hpNOQpdMGdnbnJQiLCaAqk4hp7hpyAM2VDHNX6mPRO61leal75qdiOQJVp8OaSH1MpbwoMJKIHTXpzV1skyNZiOlGmLWStuNKDw6hIDib4TtU8pTuvKSzxUvl4BXemHgkFMxBGW9W8eCSZm1kmGo1LC/IrUatYDwKh71FVCenVeWljkx6TPmUzn6Enko84grhduFL32pJpi+2JPWm04sl4nDOp8okJSdquKdJSs6iMBqhveUfCg7n8BJREL2aGpEt2fIrS+zCON2c00KZiS6EYiIzVs+BXARwbEZ33qbCS5EC5Gd9deKnrJTGsH4+V8Lu3RTqeviqY2xkeFRyHYWVlPXzFSWSAFi5rfIock0WzIlciYnMU32VDKshFjOaGYwibSYG7WKypscs7Y/j6SQ1OHeNkjgu4piWYNk70JWgIKGoJ4F670nYBBeDD15rXZJqqOfGr4nSwecfdTNoEJFS/wCWi9hqA6wGgzOKiQQvutuGw61YgEo6Q5KGJugeox2o5RBJyG7fmoLA4IoetF7uBZDMzv8AijJQqnAIwYIxip1HEdh4EvemyylAFoER+FL9DpWL9hEx0ZNameQqR2agVCEorm7QrAvAiTOLYxTp0uG9/wAtIpdcB6ctihKsKuvv51FPrrFfNpijwvmRwvVjJicRdMzEvdpiQjBfmtWyuSVUbS0mKaUiXvUE/pDHTal8JzeVpzG3ai91TNNuxNCmlVgAvvartCRtlsWmLUeAUg1XX5ZCQl2pMBRaiQrxvM2W2eHFJluW8yMAYvu+tSCmRZcmRI3xjNHhZYA2ObnajZDJNqRFzW/l9AvFDJdIe1KFqFJTX71BafC0NaHuDBHn8vjRIVBDaMUGwpibfelOGBcmhV8WnT24KAAEhtsx/RSgVYCgqWWZpijSAq4XcTIT2o4lZKXExxNQJoCtwWC8ZmakMnCEiHfpWnAoQ66alKA1RSSo/ThcMhl60A4p4iY68VpCST4DV8ElGb7UwYCRNT+VFDykMDs427ftaWhIhKwVEzg/A0X4iZRTOzc70szdQnQm98qal+lxYzEacUwGzRgWZzExOk0iW+hiPSiXPRyEZE55pUFh4ExExOY1p05UMzITCbPNCgihgwnQRDK1I7FRKJfD+VRtY3h9aj2oXrxWoxapyPBrV0nGCZJxWBlA+OKJMDp6hfw/ZQqBh3oTQiQjyKnd6hxhiLdfKpxDh1iYeB4Vcw2amaXlY4q4QfAGdYX2zWvwbZoWzoFn8wOYjIyTo6U/pJmRoRhmxxWm6Erub8ZoC8EyLOZuv4KvlMBcU8pmYirKn7WsAXB2/mkUJBGGdFjvUTGtzIwm3j+zTQSBlVp46V2F7+TTUz0WJuxGKmBCsK+V9KVOVbtYYmiUSLG5sFIQWC3AzqTks3oWVFDURCPWjsYiHkQc0BuQiB8PhJMSS6VA0YGeWvhQeqRZqXYMcS1MYq2ISILsrBVuTBRKwYY3hqZnQsqkzbtVjuzBDcu8K5OUM0/hUCNIT6UGuBdx/IsJQMqzN/xWvACQTeB5tTBvIAL9G5zRBdx4ULFJaAd7UHNiuShMST+xTm7wY+w5hrUXCB0PizSi0A6BnHlepJgljgLeFRuvHAeKMTrTq1SRlmcHTP2otSd64SF8Pu71fdMCtAaO5UocGG3TNsQ80DGRtZxFxilDKkE7bB0oQXAQQiReO1DAcIJYuY++9QjwdcxeDGrRDjleXyvvi/WmwZCgH/DlSucJu0PT7KGLlMspCEY0ioKbbAcFQhylnFEkrPNWIZAI28RQiGbENsLLNs1mprBykX39KEiaES0Qx4WTmnheIDCurzpf+QllhhBoWhwkylNxUA1gm6mt1KRyhP8AsphO1eYIOl/so/AqsleZoIYSWd/6aGcsgE9kZ77VKgIVk96zn3mp3zilDQZbN6WkAte50Z09tRRGaS5Il5zWb58mLFxPGs5aiSUjHK5tM+VQaCrmJ6H9MwD5kd152tel+puWS+r01jNQ/Q3MYJ3pTpTgABEFJDzJtbFPhpA5gv4NKZ9dxKZax+yPvguLj0O9DFvCLHey3eoVhAL3EHEzmiItqDoMxGaBdv2Jhl1ZxUCNm9h7NomaY4mFrMFvRUM6chZNDPQoQAhrpmJxnF6GUZIASx6VHmYzbvfTn+Wl9iUclLgiVAtElCKOUhM3gIL1DlGjhiDPnUUjTAul7at6uliOEs4jRqYCW5COo/sSVMrL1h34KTCUCSAwS9Vt1qNa4xm21OiYkjKu2aA21YgIat7RerU6PtolzgorwBpKEhdGlX4BTOjYL2L4pzNZCjw41ps6fLfrvnWrBppzhKdG9qdYVuGQtPRbH8rFiwzc++NfgxEJSWRNzUx4VYiXW5iImcQxQgSydKZip1lQ5JhBfp2oYFupES9iBGWt8SdT8aGPjB+xKUmSxLxJGm01deiIktbkH/aUVMc7EOg7+VTODepb5ezNXkbYCiKDpEurUtMZQkzOuq+VIzJxNc4rXXzUhlQF8SpEZnyqTNLDSNGH/U0yhBYkX/ltmzsajF4i2P23NAAAgPkBBBHR/wDBzGJwmWBRxUzgjeoVddouncBRLiuJUAKkyDOGOqpbdLDI3P6Yh/mSTc+C0uaV8xh4srFrEEtoZnq0SpKsHC8weLSLZWmMLMRG5mjNgJoF4PNUTbI4AyOIanTSFYN738/6XbFH8RhGUGOA/qBbSttI3eKdRoBYYnq9ppDeEQKybzQNuRNX8a0nYJ4d3FQhN4RMEvemPOQzJReelOWYFstcXmgZATF2oGJJzU+WxFnU94oSjB7hv0pMQb1usDbxodgq4SXNBlZNgmbXvZmohHaOn9nXFDJJj+kEEi5ZUwUojYCZsYI2nTemEZKToHpUBkIHEj1tRJlZzGCC1ulISLJDCAQIjmpe7GRYqII367UpBCgDGIMmd6gHifcqZ5lOYFsDftioq0CX0ZbrK0WwiXe7hmNtqYoUQhnZb+yow1jrIS6b5YCh24GAREFtiKvSIVjGFGnFAgCA0P8AxgkiQBrUDyMlhHX+n1Ksg5pbKKgYHT4wEglgmruC2zj+nbCTNSYqmkowjO2W/FQu4rIC82m/NJsRFAax6R401LFIl9MT20phzoZCZs4jGaIlpUOYJft3pWyuWBEzxQwAmDMMF4ZSXKC95LhLkH+lb0psNjtRaETENVmgREjZoGYGBsfLq/WyxHT+mAIWyBE+FAQsFj/7Of/aAAwDAQACAAMAAAAQer8888888888888888888ssM8sc88sMMc8csMssMs8Mc88MssM8888888888888888888888888888889p888888888888888888888888888888888888888888888888888888888888888888888888888888888888888888888888888888888888888888888888888888888888888888888888888888888888888888888888888888888044408880w08888888888888888888888888888888888888888888888888888888888888888888888048g88c4w88U88888888888888888888888888888888888888888888888888888888888888888408sM8I8s8sc88088888888888888888888888888888888888888888888888888888888888888888s8oEIs88sM88Ecc88888884888ww0888888888888888888888888888888888888888888888888888Mc8EEsMM8sIcAMc8M88888848YE8c888888888888888888888888888888888888www88888888888884kAoA884sMc8MA8888888400404U888888888888888888888888888888888888Mcs8888888888888s44EU88swoQIoc8884w088848Y8888888888888888888888888888888888888o4EQ4g888888888888cMkMc840ww08U88s4MQ4wwww08084M8MMcc888888888888888888888888888888888888888888888MkQ80888488gc888IE88sEccQsAsYsUcU8c888888888888888888888888888888888888888888888888884U88888U888skgIs0ww4g0UA84w84U88888888888888888888888888888888888888888888sccc8cU8csM8c888804Q88888888c400Y8808888888888888888888888888888c088888888888888888888o88488888888888888888888888888888888888888888888888888888s4Egcw0c888888888888k88888808888888888888888888888888888888888888888888888888888owMEYEAkEUIw4888888808c88c8088888888888888888888888888888888888888888888888888888kQMc4I4U8s88888888848840w4c888888888888888888888888888888888888888888888888888844w08888888888888888888888888888888888488888884844ww044088404Qk08wc4w888888888884IYogc8888888888k040888888888888888888Awww88888oc8YYUg8s888UoIg4IsQMA8888888888880cc8888888888888w0Y4888888888888888884c888888Ew888888M888o0o0Ecw4880888888888888880888888888888Ug8sscM88888888888888888888888oss8888888888MM8ssscs8s8888888888884EU408888888888Is88888888888888888888888888884MY4E8888888004ww008888888888888888s88ss8888888888884888888888888888888888888888Mscs88888888MMUoAsw48MA8888888888888888888888888888sY888888888888888888888888888888888888888oM8wEQIgowU8888888888888888888888888888sc8888888888888888888YQIo888888888888888888888888888888888888888888888888888888sAkIAswEQE00AEU4AQo0880Yk8888UQ4s88888888888888888888888888888888888888888888888888888888888888888888owcgg008888888888888888888888888888888888888888888888888888sYM0888888888888888888cccc88888888888888888888888888888888888888888888888888888888o4088888888888888888soIU0csI4IgE0888888888888888888888888888888888888888888888884c448888888888888888888888888888888888888888888888888888888888888888888888888888sAA488888888888888888MY8Qs88888888888888888888888888888888888888888888888888888ssMMM8888888888888888sswc08888888888888888888888888888888888888888888888888888884w04888888888888888888888888888888888888888888888888888888888888888888888888888sssM8888888888888888888888888888888888888888888888888888888888888888888888888888oYUk04YUQ8888888888888888888888888888888888888888888888888888888888888888888888840888888888888888888888888888888888888888888888888888888888888888888888888888888s88w88088888888888888888888888888888888888888888888888888888888888888888888888884888s8888888888888888888888888888888888888888888888888888888888888888888888888888888888888888888888888888888888888888888888888888888888888888888888888888888888888888888888888888888888888888888888888888888888888888888888888888888888888888888888888888888888888888888888888888888888888888888888888888888888/8QAGhEBAAEFAAAAAAAAAAAAAAAAAQARMWBhsP/aAAgBAwEBPxAItcP1wAKHTP8A/8QAGBEBAQADAAAAAAAAAAAAAAAAAREAYLD/2gAIAQIBAT8QABXKrUMAQOmf/8QALhABAQACAgECBAUFAQEBAQAAAREAITFBUWFxEIGRwSAwYKHwQFBwsdHx4YCQ/9oACAEBAAE/EDB0Xl8Q33QhlITI1MN/lbx44xCPhh1/Z0AnMjThJFMg1PbF7WtNdePbFhfWgp7YEyKIxtMUS+yAuXapyCp4cIAoRABMUQiVE0vnJBUlBZh3SYgI98AIJrpx1m48bAl84kJgbJ14weHegYUAqUhxecGuCghBwkHEEFMCicTVZ75ysdAL74ipaGht9cWKbzHPviS3HDFPnnXxiij1zR5JRT6YahTIOD0znp2BT2wZ0Ajk2X54+q7bAtwJk0rGL7YAFkFHXtjogZQX65VgVrDvFedvQ58++WotVdcvn9s3juSGcLy5yscAL75B7jbC/XAbKohBy2HgZAefB3inE2tKdNHQ1gwQksh55x4izUYb+TnOe7NV3oh+xmgjwj6vOKSKIiamW5P4ZgxI4kPyYICRoC7yQTcprh85xl7AL75/zjvz74m1qsG7zn/OOvHtg8O9AxAVqtjb184Q4NIIfLNbWkI2Hj++zOo9spUrJQuIN+aQEry4RE8MOv8ADv8AGM/jGbsN+XD/AA/P/wCUSpTdphTUnzTDde5H+3NRwrTKHuPdj+IffF0u8OWqWWR+yZ/L/tgan8f0yIqHbo+RvKwBoaeRAPWT8IIgAVXrArVFL9p+YKYaV74T/RjrBHt+0fAMsCSYkYv6nwzDgdHpfbFSa+kP9mFhaKvPUtvnnJT/AAKYIsA8Vr94x3FB8412mq+v5SKaBBpuXsCj19DICSB/AHlFMsoe0QnosIsCAEA8fkoQYQA8iPOEW1fUYC9y56f4FKJw/f0/gO3KDhEa7BocXCBsl498YRc7QOQPR4wmzsIJbJnkBIiU933/ABFBxErvP2PwAmbT5fg09NagBVc1TIwRCUkoiQecWDalaUfYHnDDKZCJSx9fweQP7X+CbHLdmpTYPDSu/RrWK8J2gDWaIqrUKOuGv3u1Ry1i2hdnEiZbZmdXO0yHQX3wR/eh3oDTFfKq7+KiOIEN5P8AR+A2dB19z/X4Nvy2weo+TJd3VtxGgOt0bcWXa8prYSHYA1xvOCH4FC2NP8C6EDCHKAj6YAAfgkKJ8vyudSW7Rkeqgz0uB+AjIUToSD53+Xx40Og2PO19P8CmWBEeEzawiFCrIhuhKcX4hQqRXCqQLRhOGKjHevb4RxQWoiB3k2knkQont+A1MJvNsgaOtCPLGchAHcUH8LxuF8a9MHhxWdom/dNe8xaSvV/gHJ5+j7AfU5eKx4P4C7G6HnwpfDT8MEaB7j5cD6uH2WA9g+uB3uTAOv8ABJZkuREvkEvlnCNIt1Xop+f4Crwp+rBDdA/b+YApShEoedVMICSzzSf04jGGwpKygQIHVIUZecA281WzHNU9XnmF6BP3Z/N/9z+b/wC44JX3cFxXPGZAt+4sjB5/YcNCPfs4oT3j7ZZuWm8vQBEdewj+qBvYHE9ReHwPSQOefidOmwOf3kiPKcDeXtgkivGNVIJUxW9XhVGKDHTe7/BMmTJn0P8AgZNp9E/a+NevG6byj8TZsuliQYjnRoPBVys0GbWBfoGEdyeoZaAIb0F4a5t8YcyLI1aE46cFeJ6//L4NNoJ5Sz/5TP8A5TP/AJTLIE8w5AiAbddiRPr+YaBSjtdr8341NHKgWi8wWej8ESAFVYBhiiHMb1f9ONsQ3liQfIXNASGtUDv3Hx1uHy5QL9J+sEpHKZOTi+qXz4kYNWGlcfV+f0fmSv41nr8a86TDl4PVAZd/5pKv1P8AR+khcKARr+3wAV9uAkdnuNmXw4UKWBIgNVAlbgMdyhtAQtEtL9EH5XvRD1503tUpjx4cDocEeNs+mBtHEA8JgjwkVdjWIXVmgFNABKt14+Lpb+6/4fqtwIOVYYBTONl98/jn3xw6piEEd86z+OffGGNTkUPLswbqLCF5h8uHoGf+W/7npBYV/FQ5zg4wLo0KrwC9Y/GBAXp/1R8Z557O9D8itFxowzqpx/7vAQAHK5NfVn/u8AJWdxHwT+u+AYSwJylGcXjCMtSohRPl/QGr5RSG3uAPRPwzjTIjGivc/EIJutEtXyFPF/RK0UQT2eCuKb+BAZZt5m82K4SNFBtfJipUh0/AOPni1oRGwkKrEaE1LdY9QpugoNtkYHxuYIgjR/rKGtWENFpQKLsOs5W3tt/rP5T9sDJ/J9sucvy/2ynFfLfbKm65h4/ln2xaECMT9Qy2K0WgEtuwCs2cT8Is6O3ufvC+f5ZhgRHhMMVJh8KfIA+X9BJI4wgEDdA4UuAJK+CwoJyeMbTBPRlOnowdCp8vtxaq1fgWMlcW4afsK9wwa3yoQo/Vj9H9n/bLOmjv/dK/fOF6ch6vq+r+idUEmu5oihxvtGjjS9JoLWEcXNQnBlHidW5WAHLogGpMgusbDSLMfQCq94hXCagkEZBpt5ZM1zp+MBAbV07wc0VdQcF9DXy/rjmirgQxRv1A8r6OQMlnZoI1EqNTi3ExUbSEVQoAaHJiwGOrwFU5xJbmv52CQFhFImKOnLBBVNAPCHSPz+DY1Bp1rd+FQHAH6marZt0ua03M2d2knQcKvP7YyqSUvjHgtM9fDg5eG5M5o8Gpe5BwKAyUVu+7HKetFy+9bqDhV1UCF8+HA8DPSQa86lPA85qWARNGKdEvU3yYYj1T36LJXecgmTWwIKAjU0PmDWDQfOTJlc/pCKKz6j4tmPK7oLL7NmHHEibFHyPaH6Mh4WNjaCHmc1z1zggIiAWNEIUzTreWEQIwQRdRsBFa1c0oImG6W0lQlNr/AF4VggqN38IyFzC9A5AJYa58uVBmHGlVaFEkk1M1mpIdrWjTf+mLLHQdghL4P9GRhASmrYHJzxizSpXyAA9+3v4V04H6/wDL8KSHe540ffEtmGoHpw7coTQ8zWucuO6QFgjV0urwvnN6inEeIhjUH74tEUNFIitonnNgQSC9Mqa50+hiQ06J0gn3QPuYGLATSHjhyXAeQqal0ded4nb632WpjRx4PHwDFOx+IJAAgG9y6YEHkMgbjZz8oA9gDC9BfK+PTpjQPTClDemVJWYgoIbEKiM1E/EYEznbgXopH0XD/hgoW3w1PxWBHwIocr3xgxN/WD9GQLKUMSoHQNXoF6wAa54ftIHMzjxiNO4ac0DyprlEMqpTGA5RJCYmhTS5OFaaRLLCFHfrxj0UDg2OIVQJv0pnPjTVz3w9hcZ76vwUYiDevD4cYhkQCBih0EbZxkQ0yAUQOpzv3xVaBUCJKkAEp2f1AbAbrFWimyNc4pH3n21hxyfCf6+FuKoOnJxfG1DELo+S/wB47ImWfbQ/fN9mHHbCNCGhYcvwrCaayyroVV5TznJ+U7017j+H2OgwzAqbhYvko+X4gKJo+qx98SboTnYnkD2B8mHL9KnE0PKJQemc1uc3633YU4OBu5BxsacnBpxigyidwNHRQY+eHH6yRgC6rvDoS6uDooOK1QvH/wBOsU3UAn8rZewPXB2rtWPINMbnjfT+FOJg3g6Z1Z+QfHTq6s9WY7IisPqX8jnhCz4Q2vQFzYcpEb+QJ8wyqp7N8bx4ikadG78GbNmigyvnIatp+zgQtPVMESmz+86GKRyA03wIb64y9vKRbuuhFZ4HWsDykzEyAcEyXzRTGCqV6TiawC1ERZYfRu/fJ7dZgM0uXB6mMkpblrASBdwmInukqut++jfoYtYKCVKvuquV5mGksu3rTXGjxguV0QDY9Y79f6xqSPpNpPkV9w8YsYVHnseiIj2J+TBC5APCPOLjqTfzgHyyDPZ/c+P/AEh/UpeiJ6p8ZevUV5cCw3Ty2aLT6HB1Hp7h5P7H47eq8+aH7oZCxzCeV5fXFIuI0OEEmspQ6RvhJxMCjYB0lalSL03A2JSGQQ9GtayATCg7KWcNfq5DQhrqICl5QAw3sdZGhHyY1BUeArdMQ8mhkbBoFTpSUgL9zB1FfdxYAIECh+zgSKOYI+KlSZuC0Ef7x/GPviA0Wjb/ALycEe3NoI3R0D2ezTyOHh//AA5o6gI6uE4IG9blioerr8ByBAuwWB1AXwD8pFmLAuRMikPxUSpeUNfT+8xcuMQ7JRievjBwccmEdselNE4mbtfqJsOKCHKTUr/YD4PRA91xZE31/wCmcI/f4YE+2AHXhLzvuj2OBC6e4iyEODW+pM/hn3z+GffP4Z98/hn3z+GffP4Z98/hn3z+GffP4Z98/hn3z+GffP4Z98/hn3zQrwdjt4AMXG3x+HkSJAhUB18f9MIpnBU+Z+PiLxbDkTpEEfJgprcLg9QRfWGf+Mz/AOMy3YJ1zw9HwssAS2mWgCssQWCWfHyC+UwdNjPkWMq9jASSQy5YnScJ04jFl8qBWBt14znjlZhPPthnMjLBRgCteJcKJBATw8OHszt99K9R8sLiWbsKOcO4mFFnyGI9qstt6+cxJ2y0j0o98D7sejThDPqGvkuPzxQf7HL9DsHh5r8/8WGT0vJ3MA38BBSEIkC6Da+hhtM+pjWuzWw2405EAnQ/cpyfUyxRDQ0Ha78PZHASkdPUQeHgzhcJeDkB4W7XXpvjEeNWGUSPLR16PxbJsafpsnkL8RCtKYF4NOXBQJoAAftnID3/AOWfxb7YrUvK32z+DfbJWs4q/bP5v9s/m/2yKM9K/bP5h9s/mH2z+YfbP5h9s/mH2z+YfbP5h9s/mH2xOpeQvtn83+2fzX7YCAGHX/xxICfJ/wAs/i32zr/ZY4fjU1cNKActJw/kqxT1cUinwP4RpT4NCDVDPEsRaqgivAWIdI94SeClNQtLbRBXuZOaxLLZV8HTyW7xg8UYqQBAkKdKBWtAXiR0B5Entb1jSQQuYojjJakOCtQUDVxuPVNADU9S1AOv9WNoYVPKu94cypSEBCoAArBYjvC5oIIC7D0GLngZqBEE9fwcfjT4LHENJXsGx9TFQFCHYEKJoU47yOEKk1intXlV5eMOF7JOaLSM3XzaOVEmK8kAtU0qmRicDSD7pEFb5tHHoSRKheTWpo415/T1go2kzyIf6D8xlKtSTCUEeYvOsCAlpPqDe1cz8xWKRHv+RCmS5csugC1wmHByWpO6l3p4XhxHHqFCXRE4K6kykhSAjlpHUfaPjHEx0UJRdjZv1zWXCKIQ2PtlhXRoouzw+eVsHLrO10Ahp14+BwAR6QPmfND8of6qEAcq5DIYa1wPkL5mGxdQMzmX3w8k0C/beeTF1VDROSU+ZfbCeBoJ+2aBxzHrnA0hYRE52jwo/KUCqAbVw/QgCQR6NJ6J+m3TEu56q+/5iOhTfwIi2F9jEXMGq0CoAWa7fzDaYU5/IapIFC4VHVB+WGU1TEgGniginl5w2UXmG8EHsKW7w4AEOxCGCqTzF5HKa2aFwN6hYOBb0YSSFhG/eSyl0jvnBuPCjZ4Uiiau2rXEBApOgQBStfdZetPRQ7nPRD2wjew25QIH/AK7yMccQLwKv1XGNG8R4qgd8f7sf+Zh/wCZh/7mQICj5yKkR60MWY98jA2nChWeGex1hYGAEAOgxAgE8OQ9ZxS494LjPqH+8W5tgX7KPevrihUXGc6afQiZr6Z3s/DHWIEAQjTpY+AcABeec+nPluhwR+IB6NHxhPxAoA4A6P02ojfegKoDQRNjUxcGnThTZn5PO8nKAtJ4+BAoixTx8WyZLQ9UfAoPvyaSzpfwIECAZCfq/EsmQ6Eb5/Ajz/tvieFkZmDQKiG3Ko+1i9IAQKJw3fyNiABrseN9fi+K5a7GIVKKsOOTsHLmHUuwVJOVdc/FrKhEHAsvgoPz2Gkxck/JwzRzglpg+ri0pK4FYfumGTJwjRyVuQloS9tD8LkQLvYlBnij9PhXbqVUox37/ADFSw8BcIjETzTaa1D3vwkxGTuuL7/qdNxyHPMf49/6YePt2HIFTyxjkHTc7bh1fAFvrkafLfAueeT6BhKKuECYI4CEWsoBdvK9v5qelRaVNoEUsaJ6mO1UwQGZtlNgwHO8jVPxEY7NPXBJWq4aI2ROt9ZeRsNBtUVA1NxRQFdbOiayzvo9814VbrsEA02yTqQC8geGMm+NY6VbiQDTUdICJa1IULom2W5QvAc3qKBBMWmaKAYps3iD8KkWgIBQXRw2q8OS3fB4IpwbNmU3ttrjngjpDk3khm3UDKUycFbQRNkwgosyCIJaxWQBEqbXFWumAegGNGD5MlHfEyc6wWrsDr+9CPDf7YVt43S8N+wsAABoP1kLNkQPyIWOS7wBTgzdRI2kAd83wqE+k/HyA1RQ0HLJeMAG+xJ+/wDZSHFAN+w2/T8KnTp0tUHVlCPofv5wK/Mj/v8ACSJEiREonhcKF8A9nEX5fqxEaJ068GH+YuKqb8wGsFnA4MYwASgLE0AhE45lAOh03fpsba3gxpXD5aGlpa6848lYgCUY2IkK/LGnE5mgDT5jQ7j4yj0W8gqg2qIxETrOXpbOWAgUV1Henw4v0kg9wdM0GeuWFLPHtr9zxzg6GysSWzpqLHD1gvFvAgSyWRLxswInADFUlSO0a4T+qivCQTtncPkZe3aR5Lnp/M6AYNj5HkfCbM4FohIE+rZ639WLJmKUg4RNj7ZYICOChAHkgu2wecvk96WBi6OrTjKqC2oq2rpu8ZQyQAUI4QTWvOGS47SfA9cWAAmI2qM7URbLkftIlM9qBQ0eXVxem6/lCvlg46MIsiedO3ozjG+eqQCoRYVI6rmgdEWMAeZGzYtx1/QDA0vryr59X9UxyCD0eT843SgYeW/VbugD+2aJ+2U7Is3ZRC0FBrHGoJYdJIcacCQuFjXN8VgtqLV5ayK7AY9dgN6dRMApw9Pvp/N4uB3cIEBGBDJCZENYyHZSidE9L2owmMEIyNUXbRyXjGhBuEajQBw0+bWd94A9WcZCjjVmgpfxnGduY6vYF3jSzbcW4ApTVw2mFkXlI07q0QQGqmB3lIAgEp7jpo3iNEHyMqH8c+cUGEC2LT1WpeJ9EfvWKTwyXyXvNl41BVAB6WhzU5xByTTaBEiAdDs14ieqKdlzYN2qGaPklYRVISrRXlnn+iJ5AP4ApQ6pEIcW99B14w0bHQBpJQUla7ao7AP2nQYTzhG6HXZJOkMouIPIXrS0ymZXFzIgUVKA8MJmugFBnwUR300d3DPmCUnAaa8B0Dyw+LPqhZ7af1XGegUNO2uS9iAAYC9Q39MrygGIOHwoDhQxr0u4EGyDa8wAPUxzlIbMkHAI0lnLWbcY6whBRpbQUd8peyhZGArv3DOxocKGKUxuBQOTNLuc5WRtIzrYI3v6YgH/AL+8S6uu0MSJIEvZckClJ56Wo/BgDRIdw6OOyOb4V/8AJVitgY8YV3iG+ZJwKUKJM0xqyRAYgeUZwOQSGtitSoAiUB5TBf8ARpYcVY1fTgvO1QNeghTkrzDW05wF80CUOgNLdx0urXA4lQ+SdEPL6Y1CrXDGhUaAJwDOcuGmAAtNLpvF0aucIE7ikqXsacmqNyUCNwiKq0SDqxDdyYTnANVBROpzfzyoZK9/zjjD7W/b9V9SRiH1ckzyjG8bdbuKQzEO3BEXVRON7MCsVyk1LoECxvyYoF6RA0Dy6Pm4G2hx1zlurde2GmeLBgY3tia9cIMv4W7HRp3hkiQNg536RvtlWTBVEVOLpB0/viEMAI6Nnn0ySK00KSX02fbGtXqG5ujpgJUDIdMWVXjz1iqpQtFiPk/R8OEwEtRo+Jqfh4rbae49/GxR3EPo4AAAEA6/P59z6J0fWB6phjR5W12HInY7PzN3k4gfzxl+2jwAQ6QqdMdfqvdpLPTzHDYYrVRFeVU9MmAAzSoR9n75IlZfUtTYlKefTDMIXtVHd9UcaoODkShoZRnswPHyQoNB3zXtN5wnDANAn2AARH1cIkSYS2Pcd1aucBmFJDKuoCwmC73AIYedsnhYrhx2btKjBVPcwG3kKnZPhfk741iiZAAFGAWhENN84E10uqgdueLbWu8ACBA/qQMfuI8j82I0T5FMNFIJ/wCuSDU4E374tTeAI+S5/wC5/wCYxbPLf2z+R/5h/uGr6Zug+S37OWifkZ2CPCt+2DKJr2+Un6J/mUR4b8aWXb1+NQSvPH9aoCvBiSUd8u2qg9UTfLm6blZaqIJqlhqEtzZcCvILwERmvIpH8gUiPaFQDtfBiJiodeEAGjSqw6f0MlLyY2G+ukGS3NC0oFjxS5Xt0DpYxAMdIcOmP53huQvqSPyyb75wgF41LZ4rJOntUitwbbHZq5YD4cspEA4Cm6YDv35VKQAbhS2am8HRyl6xQi5azTZQYVgjoXh9/DPK9OLJVt14SDjxyWJGFyJcx/1koSr0MQFUOOBuMUMWMGKZAmCu2nThaDSNyqSNw0HeGVaFCPUVu9+O8SW6QVekRRbaS4r7edakOQeTescBMMvYAOxERHiZVOmzkVGInYcYJB0wIGw7VT5WZf0NjPLY2NE16eTAVhUWUohaJ4R6X8XQbtG+Wi/LD4j24KDkjrXnjB+et4GhalBpyVDB/wDcOgos7A1VOs2qrNEmaWooQExlzf5AglAFcSNqgmxYAjiEzbQbUTtDJh3sAxfZRwORfGEHx02kxjStZpGXLn+U4VOWo9HByhjlFGcwFCJYy5teZEFbRBWEzWpvHdG9b2GtsPC8ZbecAkBTZRLeqZO/mZI6BjFKVZoutO0qnoAW8nRNW85DnMALQTTi7PlSiZc7chYhUvJND5YiGFjmYOkC0OcU249Jh3DzgwTl8hpw5aqq8nbvSbNN1/UKIgBtXrGJYpAb4oy4e1AcUZUnCc7wu7XBZQA7IL8sbM5goHnTsjTqOBEgPMXiebSTnDN0AqSgOZN4sdyAEDSeXV5xRKHN2bAuoW+MPUlAB5E5/p6aUvM/tJPwCO5hjXkUBTmpflhn0KlIVV1Ao8uJ+iBbKzyFezD5I7AQTtL0/NfjMIeRp8URUKwvf5JeRTBQAL0gPMTGGvsZttTzz35wIhstNC1QAgddS5th1ONaF7N6m8GVcyhAOTzY+8cHVUGPRCdxnW+HGGhESlCcNEf/AHL6LGV3zPF7nOAmXKwXInD8+OsJelIERofJ/d85NW8oVMjV4F4XbvKDMCyBwCNPe3I/Gh2lIVbHvlxbskuosJyCJxx4zQoUM0Ch7Uq+uHDCAFCWIgjtu3bi5GDQp4tdvrz64m0RgVRNePQ8uX2ChVAJWNBwdfiiQriuBvQkK8Q7fbHqymnCtRE42+2DfbgU0vLZHac+XEVaw0gZ6BNepl+LId4WI7HTr0c25/DtuTxz1nMmTIzzPBvxivyAMR0Q9Zm2DDqqG3BqcemNNcodEW9zXObdWxbHJTCEQAAwgRN4MRjWWokPudeXGeoU40bGbU47ZgQhFAbHw5MApL1wg/24H+UA9ohxURp1gQ1Ah3KG01vTiSlrkCAWh53rvHGrnTUE0y1Pqf1CCIlHkcZM7oo9dd5BAIndrt7VZxvHxZQEQTYkns1w4PCGMSiFKVBBPri0ZLnAjoD7E9METKJgIiQFBQ2a7cNr/fMBreIFWTUzTAFaBSt0F4PkzljaSSncAX0/pkpEjyQw+bi8cBVtIFDyRoJaji7xJioF+kCA7CL66r2y5prRUWhgHesiqIOnF0AyDa0LlDFHeb1Nj0AmrvhqZul/apmhFR1RA3v+yQaBjQsLlaumYSdKl9JhUohqkg2aBPpTxg3KH2LROOKeWER2gkgtwQi+IxfCwggYU0BwO+DZgBIQFVClUNgvJxzj4EUIIg8raO7QXmRWbArRYgS8u2hltsq/NAZMoOznNghVJdga1uqg1dn5DK6IL7Ca+rnnKywoqmyss164S/bKiRu3I4mjLS1Di6EZQCGjeUA6EJBNDk8B7zJakQZUVQVqpqk2uK7DmGHp8BBUm2+EKJvKDaLUaNIEw0pZxNuoEQ78S25oYVFU2obVQ0VVZvCrTABgrXLIOjcq5taieRRxsOvHWU5QbeoOaZo4Vax1L1vwq8MhQECnfYprWpTUhCIaZ6JkTiANOoI1EN8MHoshtpHlJFph1rE8PZqnuB4EJ7+fyPHYI9cXhx33wpolSVb5Ef8AWEeoXMHlNBjy6y7G/KAdABToBo1iw8tUmldsQ9gwkgO6QPYFSOu3zg2ezEIqI0EIAAEBLlieDjoCVMo8oAujHzbyqKiVD6zGyrcdMgg8Jp6ws3hkQFHQDNITrnFXCkFNRWpdHfQdY+YIGVBIIIdENbHdN8MkiV1CvgiEiXChGbgWAbNIIWpMWNdEQUXIQ7E3xgvOjAKroNio1oiIExg2AOiqBwKnu4QF40B6BuuYu2xwaEDJjUIVscuqyXB8lsBEIAANMv8AUBWUDTLMgyXIqUEPb98WWgANwgAEQLVHlmFGBGAAIxNI3cdS5yywDLaV5A0PU5cPME8tANqQZrU4/r3OIOohEcLkSNWFvLt29/2REgAqvAYffUEgBdjV4+uO1kCIKPTUR8KZSESMCtkBiWt+MPRJD1VK2acBysyT5Drdg4qqjBRPzeZT2fZBU+YYrJeCNhiTkV2znA0hKKC+egp321i9Fc3Sg4GmOtB24WpVCOCXDauzUPU/AAVAry+fyEERKOAAAQOvyKyFQIOggdnmcecG2xfIgE7bdnngmOcJe3TmzprtyeWFURa1AFYeCppquzOqgB8AFbLTQk2OGRgroDavW3dcHGXJ0mYOhbaoK6NjrLIpEFp4SHYeXSc24YJGhEFHieFd3CVrUolvsHAu2V/siUjswILQEA8B/XFCbT0FXKF+BUd4E38xhpHncAFXDrXRkcA6dBdjMNDpg4xrvc523vOCKql83EgFMKkNByKbC3ZnNJAba1AUqbA8PjOIeo/Y13+FYAPAXb/WAQAeDDIAiq6qheWeOs8JHFtdlpVOnF5q0Bsal0Png1HLRKVQ8FeODr83hXUz74bMuBxAL3E4EHyceLqN4qrpOPfnjCtLiZypeJWzy8ZCjDuetXn0ylTrRsAeCz2DezOc4eWUWVZQ2dnjeKEqgBCkATlqa/ousrPmCOD1zZ8YQKVfr1R9Zmmk0DhU6c2gEFLhOqllrgok9FdPFVn9vWgV3QEB2eEzeuQxtBUZSgnFwAWlHhZC0Z509MB9wEkLhWAF86x8j6PVFJFBBqq0Bwyl0EdBsXzWF7mWrhERMoCGwEFxPMCCxUhbspaR0m8bwFuNdR3SV1ud5OxwAggRZ0R+TCBkKIEMd+r/AHMZ52JQcDfDOY5BXuYqUaqVMLOFoaSpJy4QIXU26+WNF8jWAkWIO7pQxJm+/PDlIAe24Nt8VLCiHDYAaRoPjHKoUTs/uzAMaieoPnC62G3PcS456FETN7RKENapXKQ2glEhAMixjvQ5IyZYYAVlVSrO/TEJJZkNRgSDR77cSi10Zau2na4ngxd6xBEYo9eN4ECjMpPhnNcmuSiPGZkBG9sFptb6YmCUvkwVeHXBrzqNuRgXpNPT6dZMbmoOSzmLl5peMbEQS4B4hzQjRupUxagxM1X6G6BHbjWNiKPRY2hpdME1nD+xUqupS2IwvyyT4g2SIHAQLtA/tfHsRB9z3iMQeisBXDNz15xhEq5SQ3abLCbxyx1GwEeVNLiFTEMbIPALvYnQY9xoYKg9ShC/OEzaVnJEA0WLfN7xZaqulcg7tvASvL/Rm31BQPkuHdQdASAzqE8TFEPd/SCmz3wwIKMS8HS1u8aitfyUthuS9YhVlI0u0IauXaZAXdDg46uPvGqFfo9ZbujI4g1oezHJ0JghxWbxRfqnXDPV+uXjc2LS2b6oZAaVXW02UWwo8wzhX+Fmp36YakrunLivnNKdkTFHj3D6Z0vx+CNNXvzg+sm6rfBDvTpjktggiKSKedG8CR3SF6be8AAADQHX9YPUiHAxj+4/1RZQmbXQsZ7zFW3NKOAYPlIeM0RD4Gg2ZJg8jtMNND88xb8sEeDS4zqSsaKIkgQDZRm8DAds7oGwUXZAuTETN0tkDcIvv+IAMRAlVq+7mrOAWxGuSn9vH90d9w49mYXC4zpoqyb51i/YSarpIk9b4Jgj2KohKCrGliAAO8ORTlAQOJTw7dA6cSe8A4CUOHpPT9AVvFL4EavpcEFCbjYMiA6QBywXk2QSL26hSLB1inMBJaBFslpEnpte8AIcw052Ix1d2GPIZ8gVvv8A1RQPhgPKvGaRyxWTl6QmA0QXGgFEbgi6lxJMRUFEOpThL3jfhoiHYFHTHdEbkCDGlOH+7ixPP3AmvkxIU5Ws2auqXEDLQiVBRJpYoU5eZgmwiYiLQ9Ah28wu5uBBpvR9Rw8AlvSUh2KRBBGdYKBmliwhRwzZR405CXVS3P3E065rNtALpu8klOYpjO7AFEvaCqAF3fDP72DpAVfGQ5ZcGVn1iDgkDuxApsJhReeXecqIrLegIVENNj4c7ONGvWBeApw/snk61bIVNRvtNzHrlaDsSJWi+MVhgVBFsA5GcvjGaY22NgUHE1tvNBvlPFHITyb0IsMAyuwFBdtoodzC2pRWJ6cnsx9P6QMLRCie2RxQ8lOx2ezjGdi3qQd9hoNk06xrKBV2tXm1xpLEioQKMP7yXp32jQbK3i9cfoQQzaN7KsGRuCIVgBdwDNI69cZQsPBA2JpHDGPApodgBXRR3ZziZrYMOFaeRE6xAyoSpmACqlgPF6x3xHIw7UKIGnxht0JEj4oONfl+eZYFVYB5yGbfmaSmSpgYhhavV79M2jqSKouBAo5nviq0QFBeCaGoss1cnigKgiNdUY9koFXwAKunHalNoSDBoUaY/th9/qa7x9GOmcPOGVjSpMmm1aaN7NbwuFqjSLA6OW51lHhLxJNO9id0ycUiQVgQd8oe/wDYuSOK+HCIWIcHLx5cRJJW1BaoRU9tbdbcHYdNRtAekJ7Yze9wODHGjkb3OsJdAZQdhTiVPfIAzCZxqSSg7Od4LFSZSKW2lFThV5xXxU20FRlL0eDEaQaxuuzXtsSmnDFocaCG08H6Q/8AksZEp8gYjaMlugt14gtOZrJjIhFaZUNbok55ta9sPIbyuUm97xUXKGTKNStS9Em1a3/DuF9UVPljBmqamZBex3K04BR2GNmrUIBPNuERBqwQARu0pwCpi6A5uL17vf5/noIiUcbLZPpEiTCiVSYsQX0CCoQwxJYwcAJrovcLcUNQm4BIsQlRr64VAolDgbsDTNO+c5ICASHOmg3ujhCWaGoENiIi8JTeAKJQCq+AlZVLk/q4y0GpCy+MaPA0QDmcgLLMrSBTsI6HEgSEyBY5YDQJEdQHfwcctkgfP8AhYRB2DYp6x+mOjHxAcuCSXeJQL8n6mWUnR3HMO/7y8RBW4AA5VQ+eQ/g2p1pGgKrevg2QCLLEROtj+j6E4QBY+co7ppUSEA5MroGHKyJ37CGkK8lk2oyOiaxeYQvbACs1qTQtGynpJVLjjYFRZFbDvW3cwY4e4AlFZdlNAtuKMWWiMRAvKtTjnDUGlokqiIgHblKzIGVusTEAEZQtLgMlrNaFxqi+uKK8zRA5ccmuU5HaDJZQmgVloCsDab1BqtIx29CvJXvkVZpQHMFVQTwbzk9yXSXZm5qsS+c5ulV+bATgoPOh3ha0txCAk8stIjCYTIKiGUPIWOgAeOxl0I7UXYsEHQp2AYJHKhFeKASAUJarq5sJJKvERggKz5CBnVDEWk2kdON7/u6o4EvI0IQ3+2EXFEoFpwZEHnAqzRaxCBd+ApO8nTxBjyaDcowd63ofLjBCQ4EqAXz6fo+og3lgFcfG9z5KhLRFu2ozUPoAIiIrFaQtyhnrbgpxwgUnXbdMN6wQAwJwIbesTCxdXWtDwdex4T0JQEgVoHR6o+LhYdra2B6lL7jDNKyLVBtpNcgkrrH4QEvbKVdIKuJaiiRAiLpawQG5rCJHWYCupZrofWG8dBDOBFCQbVdF5hi0IY/tBDR5K6e9YojeDzNjmN4Fah5PGtIUQdmDBEdDrrNRA60qC4Ga7eZsOcRiMEPhW8DZotwQAO6ERxXwTCUiRHLQow0uBbxFnoDQE2CPMqf3iC4AMd7BKfOc4F7EFd3VwolEGzNiLCzUxiwIDtOfTJEQoQQ6ZcV0Im94EPVNyoUIO+T9HpSOcRUxCHkPGVhQIFZL7zDp9Gg5iPJipSwkITjXpMLCSNHKEFOFDhcfAwRIMTj/AG4fvQOSGl9njxlZG0320o2+uMtRaJryeMZWIqNR2l9cgJHSW8x7zT0ciY4ufRxnVmEA9Htt165UMUBRyq1Xtm8BraCh7BrBAONAQ8GeiWaaniYkgCyoczjHU0idS120j2d4cXmoeR9K1nr/AHroDSWbxBESjh8y4BD+z3KgrC69jHhZHmNehEPXjBCBrZBRQDaChRvAKdFiBCBohrSA0I4pi9Z9t6gp13CYrUFMhykYhfmTJhJKwEI1tIANrZw4QRFGzUjNFKsCm94y+9Draa7bH36p/hkMBkBRPDg+ozmOsIxZH18YBF8rSaEmqU+dY/AYmuASA631p1gbMVHU02E50b9Ml6tWBGBuIe9d4UuWFDoh0Jxw+mXfQLVVVGN+mupifCbknEedD9WK0AVXgMOhyOKWqbCiu/Bii/UCSlR01xhqmAA2FrAntg3T4QIqOAN3ljrA9mHC2cqFIQbjI0ytbqJJbqyYdRy1tEoRRBCylxCMnB6AUk5KkuXp6JYKda2baa1zkQ1auopHjSDzLvEkRqFQf6AVGADFE5S4guDRQV1s3vGNOmGwqYOqBFfrgG4Kgp4YpfZwSlDbugjW1CFannFRxtSg5T2499YU/wBOxKmlIlClNOGFJSuxIjjAsF3qiaUUCE4ivQsSTqQxgAroVnEbw5sPgDSlnUIvA/bN8MaCJbUk+ePFvZ2AVAUAjWojchy9kDEWk2J5OE5MBFQnFoab9uWTuYI/5IFRgACNqeHGiAErS46BOuR+SRi16UNoa0juaw0KCqgAA7AQqXeJE9V0kLaam7NaeMjXaR4obk6dCPWxdlsoKBWROMWmWuAZCijoD3dGxWfarGYG5EnMMvtoAY5SLO7Id5ugTlTtFCaO3Dj/AEfHY0YELqKcaDhz3B9HYBpAo/UPw8IglUT2cZ9lKNnyu5lYqfdJxII5GcDcyYvTQ2IoQosYSSbdOMgp3yAF4DGZlWkCEtg6EC6DC07KrBCUXfaug2GL5Kj6UkGtCxtdjCm8aUYSabyOh0jKK3ShECVVQ4KrJV5/C67quw8bG/XxdPGHsYomgckNSWumI2w1m9MiUpNGzIeyQ8AkPJV4AcIVrGg5pfCYlUhJYJkRoQ5njWwyyOGg6Bdp0m2mriHT0FpQaWAmkZ5uAEKpkdLIqjfPz/T4IAiRHvKugaiaAKWhYEA7w0BxtsJFS8L3haIxXgCGIKaxUNqvJVbat5xQLDXEUTeyLOW+cUXmO16Squ23f0wX7PYLeOiqgo26msBvigBQbdA6ic5xLq4LQlSgG6i4Kx2gHh7DyEBBu8E5z9aMEOIgYFLgLNnECInMOREkRSoqu8ezDwZpHQqKEgh9Srj3+s0QKiSAptBVyniKaKjYbaAt5uEs0AQJxsEmqlmJe4/B5VCq5dYbuLyG16iYStpchSxFNpqW7uPluYDzwCa0SG4FcTYZ3CFUV6+mNDQIkhWF1bdOMKOxkjCj5XVxtxrc2BA8NSTVCk1g9LOoLWry1O+/Ywd5UVmWnqKrJy4L9MqoIpW6hXZCcGDWAJICC4pVBDbgzgkangNPkDFgKUSlxQsOizIzMJNJWKsyFT3sL8rlepHEsD5e+QLG9sLhgpdkrtoB3ULS3KvLgWlpRdq5exYCPU9jWtZ35NI6qeV9/wAKgKFKlfGIchAOBTZ/rJ17MGga1QEdCjzj7adq0Ax0TUHWI5IiLwcC97SjYzlM0fKoHe2XZQrM0mmhAABQVO+q71+Ph5NMhKKE5cq4S1AtNdryrd7w2nKdWIH0e/PedECADa69frPOI20xpKo9phLJhAKElZ1H0M3wAINUJwSGzejxlI4wQQ0Aa619A8Y5aAkbSr3FX5v+CjLAqrAPOQdzEELKauLfJ9oikcGlRN63l6ghnuJireNO+sdZWKnVhsBA5MMtiv3C2TfAUpXrCPJJDja7cm7s84FlSZJyU7MK8w2FQwDnSoKS5QhmNrYkpBuFcOW7YG9ICOnSCxwvfjJ+kVX0PGFlM9RCifL9VRh4x0QTgjYAOXf9qQSOzASnA0RN4ddYBFlojeQywMND1jIcSeqYGNa6zWylzFRNJcCps2gK0YlSM21rcGOgniB3RsKPlrGYgMJQBrrQwBooa2pDgPaujeTjk0kgOJqDt64mZgPCQhgmo3NWY6SAsQHKHQdJrEOoQj3AAfIP1UAWBNGpUDa4rkG8gRoXUBzNvXjDCbBCOyfB48Zv9IKLwJaL0YgghIOwFSdUxEGHJlFPbtrz/ZUAsIAsfOT9sFNJEAnyyTGQsPhF6tePRmhWY6JunZWuj5c4QRkJqoXsLdvWbFQ1BwK0zKCNFtaRvUL6oz4EoFH0QgFs8/q+vNbRpKgq9RPnxhvn1S7j26TeWt4DXUUU3iALfjWjWFlWPgt1IxvCd2lxiuNqasnjn9jCdJnA9TeV7ef7W7I1Yqkij1pT9aIJXMqFBJFSgULp1lW00aFSvDD8/wCzIJUKwveJeMGOuC8r0d4W+LqCxS9f6MgGKySORh229nnHxRX8uCEX1fXEOkUIhUPSmvRMUe4NCiC9V76K9YFRqQFAoNwRrWRxEUrzCs843tc8E4PzpjxGNg6ECt0+S9YLSEKP3Wz5/BMsNhW3BYqa0M1DwtXzfGVhFUDs5PfB2mMXlBY24MdnOaqtIQEEPV5y4Rmj2W0AaFP9Y44FgxRFQrZrNwfYiVJeIPBzAoGDNOzGPj/ChX5R88CkiPURE37fqJUQsuEiQJPK9OssTk2xQpNKoPj1MYdS3qMW4AiNTTvLgyckIKKPD5OFDACiEBVIGiRoYpGjLB+v9iZRwiREDvo0NkcTSV8oG1JwU92ziQFJuSXDLvSwnS+ckGvUFg6+V3huQXGNWaFbUV48Sf2SGynIVhkphrmkoawGrE919CVXYYvWri1Hxu7wJyheq2CgaHhBEMKdEKLyCqagScRjgQ1hwnhTQNFvK8rh9h6CFr1bXjAsnZqUibZe6VvBilgFdOYDbmgZF7hCujmxvdbHK5IjvBaTq0E0ZunDeEKUCCAIcJwezK8QxIBZkIo6CBvBoCdhqgkgO9JeHL7tHvVcqjsO4axbhqFVc7GcGpWc4wPwWUosAPYsU4ydeWRKVHyQoRDlxaNV4WnIGVpVjvCFSW5r7+jzD9QjCKJob8nq/XGtwalNRZvbc5QUdP0KyCnIcbmV41ocL3q77x0FIVZBgw+ga9GJ6mOqQhOVhv0xwY0GRsZ3w/4av1C+dbfFGIGxs3iGFP0UWlQBZHnmsIEx8e7hsVkIECYmCHnyNRYyOnSSLEQdIjbhSqVFm9Q1m3QCsTQE9rqbSuFkQucBW3CKu0jnC2iqgEKAADqd3z/hmhGDicIXQjydhXCMLC96K43hFsNzFBmYHoN6FocDm5YlX1QRPLWhQVesFoZDbVRDTSpV5DeCF0v3Adlsf7Ju0AjkAPbT1rpxMdSYH7g75im+MkuhBIJ9DJIhNd5E+AxKQIdC+k6wf5JDLo0roAL5mIiLVRmn0LQL4b1nGInUV2xaDaY4ezSRKNunRZZ3MeIAyJUDT3Ek3xvAOwBBUvbu6Q3XF32Sa0C6ASEa1E3g0p+rEXUkkOX0LrfLhEmBxdCvad9DkK2YlvDZOuZHzhZpkdimXcA32cCvAlVFA9KCcN4XmAhZChQtalOt4iuySQMB0iInk/sSJTtKqjXq+lOFwJuqUSgiwVA59uMGOWUzkLUll61xjfUJopySrrW800wbahC9m6kqeDONU/02KxQPFDVw+/0KhgoA+SaMUG1R2FoaotNNmUKFU+VXV7LrvGBS8ynLlfIctKcZNmATVLC9hoc89YVdEokXTtWVDZxP1WuZKuBAFkVod9/BWUCDYQNUVu7wu41gk5F2GxFk10YQgVIEVIaS9JMdqyZJKarZpPowgW2UugQQtQtecAACDaIlu2inPb5zjTUtG6/O7v8AYh9VB15Do7fcPK4cWKVYQsKaEpW1WYlWgvcrCofYeWW5hVxVOwTOW3JrnIRONmQJZkvYzGIMIDiQDWhxDTDfSjsBSNBTA1bqBkluGpNyJU7KFNKzGKNkxICo1JS+g7xJzVwsFA9LP1bcjTR3dAAPVef7agESjyOGWBACAfFBIlHNEckKPy//AAc+0zgPWfB64IcEJDso6YzzMIEpQbG01SJrkuQ4PyvBXL6GHGyR5ujazeaokoKcVYYDryv0IWp6n+GGI81bEiPhE4+Fc16rUXRbgCTc3haihvYrQqW0UdiVuvNeLUNoEaKK68Z3CWSqUXQxEnOOKwAAwiTg5OfK5JtaJIkpBOzh3c30caRUQJVMNb0H+F1RiwsOXL5RO9ycudVWT/EAlhNG0iygDfdYwcVN0ckyAU0px5ZrDls5A4E0nXeEjIWg/l6AKfA4WhFRkXJttPTGI0XOJB2cABm0qYc6vKWoDga/XEl8VTajY1E0dZoUyhCvB7uLKIFC7Dz7YfB02sZEWBFXoWFgKu1hUnWrHsF4lVruBHGDlIN+cDnFbhwU6Xw43gaulFN6AcUebrBrnvXRoeNpOSm9mACCiicP+ELWSQ2RYF1XhKabhrbYQQPYaaUHWPUkS0Jq/IYzyg6KlT1Wz4PexsqCEF0BSS8sqrvGd7aYN0AQG2WzescH4RXjpFBhBJ4Ya27SiAhhU25wiFkNBSNItSFEYQQuGQnadunEgtW0vKuXCdZ+FkaAq8EIWlFOgx0gjRUHB44waTDJAiy7TZ060RoRUMZUiIOwLciUZ12hDx0VuTE37bEBAgHdYAe7vBxgQCAeD/8AGDACpR9GEsxGtxSILr0/w+ZLQ6iSmdlbFASBVD5/EXRSiVeA9cEDAVexKDPFH/DpqwgeYXFKuBHjC9wbt2DnGDEw+BJajgGVCcYXvnZC8NmwskVm8NTplkhYIwDRW+uDJj9ChUdiOUBFrrJpeWYBqXQogLQnVTnYGoa7wGiXg3YuEyg17AoPpohUrxWG56aocxWen+FetI4Ultc+2IaOVJQQGWzARCQeEcn92qwIH0/CoNAx/vCXqyz/AAwfq6JHioY94JMYHgP/AOzn/9k=;" vertex="1" parent="1">
          <mxGeometry x="1780" y="-970" width="1280" height="662" as="geometry" />
        </mxCell>
        <mxCell id="grh18UKcflgdsuLqRHBV-2" value="API loads every 60 mins (3600 seconds)" style="text;html=1;strokeColor=none;fillColor=none;align=center;verticalAlign=middle;whiteSpace=wrap;rounded=0;" vertex="1" parent="1">
          <mxGeometry x="-790" y="-750" width="140" height="30" as="geometry" />
        </mxCell>
        <mxCell id="grh18UKcflgdsuLqRHBV-4" value="Update records IFF lastUpdate in the record is different" style="text;html=1;strokeColor=none;fillColor=none;align=center;verticalAlign=middle;whiteSpace=wrap;rounded=0;" vertex="1" parent="1">
          <mxGeometry x="-790" y="-710" width="140" height="30" as="geometry" />
        </mxCell>
        <mxCell id="grh18UKcflgdsuLqRHBV-5" value="Adapt data formatting to UI and CoreData Entities" style="text;html=1;strokeColor=none;fillColor=none;align=center;verticalAlign=middle;whiteSpace=wrap;rounded=0;" vertex="1" parent="1">
          <mxGeometry x="-790" y="-660" width="140" height="30" as="geometry" />
        </mxCell>
        <mxCell id="grh18UKcflgdsuLqRHBV-6" value="Handle simultaneous requests abstracted from the UI" style="text;html=1;strokeColor=none;fillColor=none;align=center;verticalAlign=middle;whiteSpace=wrap;rounded=0;" vertex="1" parent="1">
          <mxGeometry x="-790" y="-610" width="140" height="30" as="geometry" />
        </mxCell>
        <mxCell id="grh18UKcflgdsuLqRHBV-7" value="LocationManager - updating current location" style="text;html=1;strokeColor=none;fillColor=none;align=center;verticalAlign=middle;whiteSpace=wrap;rounded=0;" vertex="1" parent="1">
          <mxGeometry x="-790" y="-550" width="140" height="30" as="geometry" />
        </mxCell>
        <mxCell id="grh18UKcflgdsuLqRHBV-8" value="adaptors for the complex response models" style="text;html=1;strokeColor=none;fillColor=none;align=center;verticalAlign=middle;whiteSpace=wrap;rounded=0;" vertex="1" parent="1">
          <mxGeometry x="-790" y="-500" width="140" height="30" as="geometry" />
        </mxCell>
        <mxCell id="grh18UKcflgdsuLqRHBV-9" value="Network timeout = 60 seconds" style="text;html=1;strokeColor=none;fillColor=none;align=center;verticalAlign=middle;whiteSpace=wrap;rounded=0;" vertex="1" parent="1">
          <mxGeometry x="-780" y="-450" width="140" height="30" as="geometry" />
        </mxCell>
        <mxCell id="grh18UKcflgdsuLqRHBV-17" style="edgeStyle=orthogonalEdgeStyle;rounded=0;orthogonalLoop=1;jettySize=auto;html=1;entryX=0.5;entryY=0;entryDx=0;entryDy=0;" edge="1" parent="1" source="grh18UKcflgdsuLqRHBV-10" target="grh18UKcflgdsuLqRHBV-13">
          <mxGeometry relative="1" as="geometry" />
        </mxCell>
        <mxCell id="grh18UKcflgdsuLqRHBV-10" value="API" style="rounded=1;whiteSpace=wrap;html=1;" vertex="1" parent="1">
          <mxGeometry x="-560" y="-904" width="120" height="60" as="geometry" />
        </mxCell>
        <mxCell id="grh18UKcflgdsuLqRHBV-18" style="edgeStyle=orthogonalEdgeStyle;rounded=0;orthogonalLoop=1;jettySize=auto;html=1;entryX=0.5;entryY=0;entryDx=0;entryDy=0;" edge="1" parent="1" source="grh18UKcflgdsuLqRHBV-11" target="grh18UKcflgdsuLqRHBV-12">
          <mxGeometry relative="1" as="geometry" />
        </mxCell>
        <mxCell id="grh18UKcflgdsuLqRHBV-11" value="Storage (CoreData)" style="rounded=1;whiteSpace=wrap;html=1;" vertex="1" parent="1">
          <mxGeometry x="-350" y="-904" width="120" height="60" as="geometry" />
        </mxCell>
        <mxCell id="grh18UKcflgdsuLqRHBV-19" style="edgeStyle=orthogonalEdgeStyle;rounded=0;orthogonalLoop=1;jettySize=auto;html=1;entryX=0.5;entryY=0;entryDx=0;entryDy=0;" edge="1" parent="1" source="grh18UKcflgdsuLqRHBV-12" target="grh18UKcflgdsuLqRHBV-14">
          <mxGeometry relative="1" as="geometry" />
        </mxCell>
        <mxCell id="grh18UKcflgdsuLqRHBV-12" value="Store (StationsStore)" style="rounded=1;whiteSpace=wrap;html=1;" vertex="1" parent="1">
          <mxGeometry x="-350" y="-799" width="120" height="60" as="geometry" />
        </mxCell>
        <mxCell id="grh18UKcflgdsuLqRHBV-16" style="edgeStyle=orthogonalEdgeStyle;rounded=0;orthogonalLoop=1;jettySize=auto;html=1;entryX=0;entryY=0.5;entryDx=0;entryDy=0;" edge="1" parent="1" source="grh18UKcflgdsuLqRHBV-13" target="grh18UKcflgdsuLqRHBV-12">
          <mxGeometry relative="1" as="geometry" />
        </mxCell>
        <mxCell id="grh18UKcflgdsuLqRHBV-13" value="APIService" style="rounded=1;whiteSpace=wrap;html=1;" vertex="1" parent="1">
          <mxGeometry x="-560" y="-799" width="120" height="60" as="geometry" />
        </mxCell>
        <mxCell id="grh18UKcflgdsuLqRHBV-20" style="edgeStyle=orthogonalEdgeStyle;rounded=0;orthogonalLoop=1;jettySize=auto;html=1;entryX=0.5;entryY=0;entryDx=0;entryDy=0;" edge="1" parent="1" source="grh18UKcflgdsuLqRHBV-14" target="grh18UKcflgdsuLqRHBV-15">
          <mxGeometry relative="1" as="geometry" />
        </mxCell>
        <mxCell id="grh18UKcflgdsuLqRHBV-14" value="Adapter" style="rounded=1;whiteSpace=wrap;html=1;" vertex="1" parent="1">
          <mxGeometry x="-560" y="-675" width="330" height="60" as="geometry" />
        </mxCell>
        <mxCell id="grh18UKcflgdsuLqRHBV-15" value="UI Component" style="rounded=1;whiteSpace=wrap;html=1;" vertex="1" parent="1">
          <mxGeometry x="-455" y="-550" width="120" height="60" as="geometry" />
        </mxCell>
        <mxCell id="grh18UKcflgdsuLqRHBV-26" style="edgeStyle=orthogonalEdgeStyle;rounded=0;orthogonalLoop=1;jettySize=auto;html=1;entryX=0.5;entryY=0;entryDx=0;entryDy=0;" edge="1" parent="1" source="grh18UKcflgdsuLqRHBV-21" target="grh18UKcflgdsuLqRHBV-24">
          <mxGeometry relative="1" as="geometry" />
        </mxCell>
        <mxCell id="grh18UKcflgdsuLqRHBV-21" value="API" style="rounded=1;whiteSpace=wrap;html=1;" vertex="1" parent="1">
          <mxGeometry x="-60" y="-904" width="120" height="60" as="geometry" />
        </mxCell>
        <mxCell id="grh18UKcflgdsuLqRHBV-27" style="edgeStyle=orthogonalEdgeStyle;rounded=0;orthogonalLoop=1;jettySize=auto;html=1;entryX=0.5;entryY=0;entryDx=0;entryDy=0;" edge="1" parent="1" source="grh18UKcflgdsuLqRHBV-22" target="grh18UKcflgdsuLqRHBV-23">
          <mxGeometry relative="1" as="geometry" />
        </mxCell>
        <mxCell id="grh18UKcflgdsuLqRHBV-22" value="Storage" style="rounded=1;whiteSpace=wrap;html=1;" vertex="1" parent="1">
          <mxGeometry x="140" y="-904" width="120" height="60" as="geometry" />
        </mxCell>
        <mxCell id="grh18UKcflgdsuLqRHBV-29" style="edgeStyle=orthogonalEdgeStyle;rounded=0;orthogonalLoop=1;jettySize=auto;html=1;entryX=0.75;entryY=0;entryDx=0;entryDy=0;" edge="1" parent="1" source="grh18UKcflgdsuLqRHBV-23" target="grh18UKcflgdsuLqRHBV-25">
          <mxGeometry relative="1" as="geometry" />
        </mxCell>
        <mxCell id="grh18UKcflgdsuLqRHBV-23" value="StorageService" style="rounded=1;whiteSpace=wrap;html=1;" vertex="1" parent="1">
          <mxGeometry x="140" y="-799" width="120" height="60" as="geometry" />
        </mxCell>
        <mxCell id="grh18UKcflgdsuLqRHBV-28" style="edgeStyle=orthogonalEdgeStyle;rounded=0;orthogonalLoop=1;jettySize=auto;html=1;entryX=0.25;entryY=0;entryDx=0;entryDy=0;" edge="1" parent="1" source="grh18UKcflgdsuLqRHBV-24" target="grh18UKcflgdsuLqRHBV-25">
          <mxGeometry relative="1" as="geometry" />
        </mxCell>
        <mxCell id="grh18UKcflgdsuLqRHBV-24" value="APIService" style="rounded=1;whiteSpace=wrap;html=1;" vertex="1" parent="1">
          <mxGeometry x="-60" y="-799" width="120" height="60" as="geometry" />
        </mxCell>
        <mxCell id="grh18UKcflgdsuLqRHBV-31" style="edgeStyle=orthogonalEdgeStyle;rounded=0;orthogonalLoop=1;jettySize=auto;html=1;entryX=0.5;entryY=0;entryDx=0;entryDy=0;" edge="1" parent="1" source="grh18UKcflgdsuLqRHBV-25" target="grh18UKcflgdsuLqRHBV-30">
          <mxGeometry relative="1" as="geometry" />
        </mxCell>
        <mxCell id="grh18UKcflgdsuLqRHBV-25" value="DI" style="rounded=1;whiteSpace=wrap;html=1;" vertex="1" parent="1">
          <mxGeometry x="-60" y="-690" width="320" height="60" as="geometry" />
        </mxCell>
        <mxCell id="grh18UKcflgdsuLqRHBV-30" value="UI Component" style="rounded=1;whiteSpace=wrap;html=1;" vertex="1" parent="1">
          <mxGeometry x="40" y="-550" width="120" height="60" as="geometry" />
        </mxCell>
        <mxCell id="grh18UKcflgdsuLqRHBV-42" style="edgeStyle=orthogonalEdgeStyle;rounded=0;orthogonalLoop=1;jettySize=auto;html=1;entryX=0.5;entryY=0;entryDx=0;entryDy=0;" edge="1" parent="1" source="grh18UKcflgdsuLqRHBV-32" target="grh18UKcflgdsuLqRHBV-37">
          <mxGeometry relative="1" as="geometry" />
        </mxCell>
        <mxCell id="grh18UKcflgdsuLqRHBV-47" style="edgeStyle=orthogonalEdgeStyle;rounded=0;orthogonalLoop=1;jettySize=auto;html=1;exitX=0.75;exitY=0;exitDx=0;exitDy=0;entryX=0.75;entryY=1;entryDx=0;entryDy=0;" edge="1" parent="1" source="grh18UKcflgdsuLqRHBV-32" target="grh18UKcflgdsuLqRHBV-33">
          <mxGeometry relative="1" as="geometry" />
        </mxCell>
        <mxCell id="grh18UKcflgdsuLqRHBV-32" value="Presenter" style="rounded=1;whiteSpace=wrap;html=1;" vertex="1" parent="1">
          <mxGeometry x="500" y="-830" width="120" height="60" as="geometry" />
        </mxCell>
        <mxCell id="grh18UKcflgdsuLqRHBV-41" style="edgeStyle=orthogonalEdgeStyle;rounded=0;orthogonalLoop=1;jettySize=auto;html=1;entryX=0.5;entryY=0;entryDx=0;entryDy=0;" edge="1" parent="1" source="grh18UKcflgdsuLqRHBV-33" target="grh18UKcflgdsuLqRHBV-32">
          <mxGeometry relative="1" as="geometry" />
        </mxCell>
        <mxCell id="grh18UKcflgdsuLqRHBV-48" style="edgeStyle=orthogonalEdgeStyle;rounded=0;orthogonalLoop=1;jettySize=auto;html=1;exitX=0.75;exitY=0;exitDx=0;exitDy=0;entryX=0.75;entryY=1;entryDx=0;entryDy=0;" edge="1" parent="1" source="grh18UKcflgdsuLqRHBV-33" target="grh18UKcflgdsuLqRHBV-34">
          <mxGeometry relative="1" as="geometry" />
        </mxCell>
        <mxCell id="grh18UKcflgdsuLqRHBV-33" value="Worker" style="rounded=1;whiteSpace=wrap;html=1;dashed=1;" vertex="1" parent="1">
          <mxGeometry x="500" y="-920" width="120" height="60" as="geometry" />
        </mxCell>
        <mxCell id="grh18UKcflgdsuLqRHBV-40" style="edgeStyle=orthogonalEdgeStyle;rounded=0;orthogonalLoop=1;jettySize=auto;html=1;entryX=0.5;entryY=0;entryDx=0;entryDy=0;" edge="1" parent="1" source="grh18UKcflgdsuLqRHBV-34" target="grh18UKcflgdsuLqRHBV-33">
          <mxGeometry relative="1" as="geometry" />
        </mxCell>
        <mxCell id="grh18UKcflgdsuLqRHBV-49" style="edgeStyle=orthogonalEdgeStyle;rounded=0;orthogonalLoop=1;jettySize=auto;html=1;exitX=1;exitY=0.25;exitDx=0;exitDy=0;entryX=0;entryY=0.5;entryDx=0;entryDy=0;" edge="1" parent="1" source="grh18UKcflgdsuLqRHBV-34" target="grh18UKcflgdsuLqRHBV-36">
          <mxGeometry relative="1" as="geometry">
            <Array as="points">
              <mxPoint x="660" y="-995" />
              <mxPoint x="660" y="-970" />
            </Array>
          </mxGeometry>
        </mxCell>
        <mxCell id="grh18UKcflgdsuLqRHBV-34" value="DataProvider" style="rounded=1;whiteSpace=wrap;html=1;" vertex="1" parent="1">
          <mxGeometry x="500" y="-1010" width="120" height="60" as="geometry" />
        </mxCell>
        <mxCell id="grh18UKcflgdsuLqRHBV-43" style="edgeStyle=orthogonalEdgeStyle;rounded=0;orthogonalLoop=1;jettySize=auto;html=1;entryX=1;entryY=0.5;entryDx=0;entryDy=0;" edge="1" parent="1" source="grh18UKcflgdsuLqRHBV-35" target="grh18UKcflgdsuLqRHBV-33">
          <mxGeometry relative="1" as="geometry" />
        </mxCell>
        <mxCell id="grh18UKcflgdsuLqRHBV-44" style="edgeStyle=orthogonalEdgeStyle;rounded=0;orthogonalLoop=1;jettySize=auto;html=1;entryX=1;entryY=0.5;entryDx=0;entryDy=0;" edge="1" parent="1" source="grh18UKcflgdsuLqRHBV-35" target="grh18UKcflgdsuLqRHBV-34">
          <mxGeometry relative="1" as="geometry" />
        </mxCell>
        <mxCell id="grh18UKcflgdsuLqRHBV-50" style="edgeStyle=orthogonalEdgeStyle;rounded=0;orthogonalLoop=1;jettySize=auto;html=1;exitX=0;exitY=0.25;exitDx=0;exitDy=0;entryX=1;entryY=0.75;entryDx=0;entryDy=0;" edge="1" parent="1" source="grh18UKcflgdsuLqRHBV-35" target="grh18UKcflgdsuLqRHBV-34">
          <mxGeometry relative="1" as="geometry">
            <Array as="points">
              <mxPoint x="640" y="-905" />
              <mxPoint x="640" y="-965" />
            </Array>
          </mxGeometry>
        </mxCell>
        <mxCell id="grh18UKcflgdsuLqRHBV-35" value="APIService" style="rounded=1;whiteSpace=wrap;html=1;" vertex="1" parent="1">
          <mxGeometry x="680" y="-920" width="120" height="60" as="geometry" />
        </mxCell>
        <mxCell id="grh18UKcflgdsuLqRHBV-45" style="edgeStyle=orthogonalEdgeStyle;rounded=0;orthogonalLoop=1;jettySize=auto;html=1;entryX=0.5;entryY=0;entryDx=0;entryDy=0;" edge="1" parent="1" source="grh18UKcflgdsuLqRHBV-36" target="grh18UKcflgdsuLqRHBV-34">
          <mxGeometry relative="1" as="geometry">
            <Array as="points">
              <mxPoint x="740" y="-1030" />
              <mxPoint x="560" y="-1030" />
            </Array>
          </mxGeometry>
        </mxCell>
        <mxCell id="grh18UKcflgdsuLqRHBV-36" value="Storage" style="rounded=1;whiteSpace=wrap;html=1;" vertex="1" parent="1">
          <mxGeometry x="680" y="-1000" width="120" height="60" as="geometry" />
        </mxCell>
        <mxCell id="grh18UKcflgdsuLqRHBV-51" style="edgeStyle=orthogonalEdgeStyle;rounded=0;orthogonalLoop=1;jettySize=auto;html=1;entryX=1;entryY=0.5;entryDx=0;entryDy=0;dashed=1;" edge="1" parent="1" source="grh18UKcflgdsuLqRHBV-37" target="grh18UKcflgdsuLqRHBV-32">
          <mxGeometry relative="1" as="geometry">
            <Array as="points">
              <mxPoint x="640" y="-710" />
              <mxPoint x="640" y="-800" />
            </Array>
          </mxGeometry>
        </mxCell>
        <mxCell id="grh18UKcflgdsuLqRHBV-37" value="View" style="rounded=1;whiteSpace=wrap;html=1;" vertex="1" parent="1">
          <mxGeometry x="500" y="-740" width="120" height="60" as="geometry" />
        </mxCell>
        <mxCell id="grh18UKcflgdsuLqRHBV-38" value="&lt;div style=&quot;text-align: left;&quot;&gt;&lt;span style=&quot;background-color: initial;&quot;&gt;Networking&lt;/span&gt;&lt;/div&gt;&lt;div style=&quot;text-align: left;&quot;&gt;&lt;br&gt;&lt;/div&gt;&lt;div style=&quot;text-align: left;&quot;&gt;&lt;span style=&quot;background-color: initial;&quot;&gt;- Rest API &amp;amp; CRUD + Pagination&lt;/span&gt;&lt;/div&gt;&lt;div style=&quot;text-align: left;&quot;&gt;&lt;span style=&quot;background-color: initial;&quot;&gt;- CoreData&lt;/span&gt;&lt;/div&gt;" style="text;html=1;strokeColor=none;fillColor=none;align=center;verticalAlign=middle;whiteSpace=wrap;rounded=0;" vertex="1" parent="1">
          <mxGeometry x="500" y="-640" width="140" height="60" as="geometry" />
        </mxCell>
        <mxCell id="grh18UKcflgdsuLqRHBV-39" value="&lt;div style=&quot;text-align: left;&quot;&gt;- MVC&lt;/div&gt;&lt;div style=&quot;text-align: left;&quot;&gt;- MVVM (preferred)&lt;/div&gt;&lt;div style=&quot;text-align: left;&quot;&gt;- MVP (selected)&lt;/div&gt;" style="text;html=1;strokeColor=none;fillColor=none;align=center;verticalAlign=middle;whiteSpace=wrap;rounded=0;" vertex="1" parent="1">
          <mxGeometry x="680" y="-820" width="140" height="60" as="geometry" />
        </mxCell>
        <mxCell id="grh18UKcflgdsuLqRHBV-46" value="&lt;div style=&quot;text-align: left;&quot;&gt;- Map Annotations Layout (Async on Main)&lt;/div&gt;" style="text;html=1;strokeColor=none;fillColor=none;align=center;verticalAlign=middle;whiteSpace=wrap;rounded=0;" vertex="1" parent="1">
          <mxGeometry x="697" y="-760" width="140" height="60" as="geometry" />
        </mxCell>
        <mxCell id="grh18UKcflgdsuLqRHBV-52" style="edgeStyle=orthogonalEdgeStyle;rounded=0;orthogonalLoop=1;jettySize=auto;html=1;entryX=0.5;entryY=0;entryDx=0;entryDy=0;" edge="1" parent="1" source="grh18UKcflgdsuLqRHBV-54" target="grh18UKcflgdsuLqRHBV-68">
          <mxGeometry relative="1" as="geometry" />
        </mxCell>
        <mxCell id="grh18UKcflgdsuLqRHBV-53" style="edgeStyle=orthogonalEdgeStyle;rounded=0;orthogonalLoop=1;jettySize=auto;html=1;exitX=0.75;exitY=0;exitDx=0;exitDy=0;entryX=0.75;entryY=1;entryDx=0;entryDy=0;" edge="1" parent="1" source="grh18UKcflgdsuLqRHBV-54" target="grh18UKcflgdsuLqRHBV-57">
          <mxGeometry relative="1" as="geometry" />
        </mxCell>
        <mxCell id="grh18UKcflgdsuLqRHBV-54" value="Presenter" style="rounded=1;whiteSpace=wrap;html=1;" vertex="1" parent="1">
          <mxGeometry x="1090" y="-815" width="120" height="60" as="geometry" />
        </mxCell>
        <mxCell id="grh18UKcflgdsuLqRHBV-55" style="edgeStyle=orthogonalEdgeStyle;rounded=0;orthogonalLoop=1;jettySize=auto;html=1;entryX=0.5;entryY=0;entryDx=0;entryDy=0;" edge="1" parent="1" source="grh18UKcflgdsuLqRHBV-57" target="grh18UKcflgdsuLqRHBV-54">
          <mxGeometry relative="1" as="geometry" />
        </mxCell>
        <mxCell id="grh18UKcflgdsuLqRHBV-56" style="edgeStyle=orthogonalEdgeStyle;rounded=0;orthogonalLoop=1;jettySize=auto;html=1;exitX=0.75;exitY=0;exitDx=0;exitDy=0;entryX=0.75;entryY=1;entryDx=0;entryDy=0;" edge="1" parent="1" source="grh18UKcflgdsuLqRHBV-57" target="grh18UKcflgdsuLqRHBV-60">
          <mxGeometry relative="1" as="geometry" />
        </mxCell>
        <mxCell id="grh18UKcflgdsuLqRHBV-57" value="Worker" style="rounded=1;whiteSpace=wrap;html=1;dashed=1;" vertex="1" parent="1">
          <mxGeometry x="1090" y="-905" width="120" height="60" as="geometry" />
        </mxCell>
        <mxCell id="grh18UKcflgdsuLqRHBV-58" style="edgeStyle=orthogonalEdgeStyle;rounded=0;orthogonalLoop=1;jettySize=auto;html=1;entryX=0.5;entryY=0;entryDx=0;entryDy=0;" edge="1" parent="1" source="grh18UKcflgdsuLqRHBV-60" target="grh18UKcflgdsuLqRHBV-57">
          <mxGeometry relative="1" as="geometry" />
        </mxCell>
        <mxCell id="grh18UKcflgdsuLqRHBV-78" style="edgeStyle=orthogonalEdgeStyle;rounded=0;orthogonalLoop=1;jettySize=auto;html=1;exitX=1;exitY=0.75;exitDx=0;exitDy=0;entryX=0;entryY=0.75;entryDx=0;entryDy=0;" edge="1" parent="1" source="grh18UKcflgdsuLqRHBV-60" target="grh18UKcflgdsuLqRHBV-72">
          <mxGeometry relative="1" as="geometry">
            <Array as="points">
              <mxPoint x="1220" y="-950" />
              <mxPoint x="1220" y="-861" />
            </Array>
          </mxGeometry>
        </mxCell>
        <mxCell id="grh18UKcflgdsuLqRHBV-60" value="DataProvider" style="rounded=1;whiteSpace=wrap;html=1;" vertex="1" parent="1">
          <mxGeometry x="1090" y="-995" width="120" height="60" as="geometry" />
        </mxCell>
        <mxCell id="grh18UKcflgdsuLqRHBV-75" style="edgeStyle=orthogonalEdgeStyle;rounded=0;orthogonalLoop=1;jettySize=auto;html=1;exitX=0;exitY=0.75;exitDx=0;exitDy=0;entryX=1;entryY=0.75;entryDx=0;entryDy=0;" edge="1" parent="1" source="grh18UKcflgdsuLqRHBV-64" target="grh18UKcflgdsuLqRHBV-72">
          <mxGeometry relative="1" as="geometry" />
        </mxCell>
        <mxCell id="grh18UKcflgdsuLqRHBV-64" value="APIService" style="rounded=1;whiteSpace=wrap;html=1;" vertex="1" parent="1">
          <mxGeometry x="1350" y="-905" width="120" height="60" as="geometry" />
        </mxCell>
        <mxCell id="grh18UKcflgdsuLqRHBV-66" value="Storage" style="rounded=1;whiteSpace=wrap;html=1;" vertex="1" parent="1">
          <mxGeometry x="1350" y="-996" width="120" height="60" as="geometry" />
        </mxCell>
        <mxCell id="grh18UKcflgdsuLqRHBV-67" style="edgeStyle=orthogonalEdgeStyle;rounded=0;orthogonalLoop=1;jettySize=auto;html=1;entryX=1;entryY=0.5;entryDx=0;entryDy=0;dashed=1;" edge="1" parent="1" source="grh18UKcflgdsuLqRHBV-68" target="grh18UKcflgdsuLqRHBV-54">
          <mxGeometry relative="1" as="geometry">
            <Array as="points">
              <mxPoint x="1230" y="-695" />
              <mxPoint x="1230" y="-785" />
            </Array>
          </mxGeometry>
        </mxCell>
        <mxCell id="grh18UKcflgdsuLqRHBV-68" value="View" style="rounded=1;whiteSpace=wrap;html=1;" vertex="1" parent="1">
          <mxGeometry x="1090" y="-725" width="120" height="60" as="geometry" />
        </mxCell>
        <mxCell id="grh18UKcflgdsuLqRHBV-74" style="edgeStyle=orthogonalEdgeStyle;rounded=0;orthogonalLoop=1;jettySize=auto;html=1;exitX=1;exitY=0.25;exitDx=0;exitDy=0;entryX=0;entryY=0.75;entryDx=0;entryDy=0;" edge="1" parent="1" source="grh18UKcflgdsuLqRHBV-72" target="grh18UKcflgdsuLqRHBV-66">
          <mxGeometry relative="1" as="geometry" />
        </mxCell>
        <mxCell id="grh18UKcflgdsuLqRHBV-77" style="edgeStyle=orthogonalEdgeStyle;rounded=0;orthogonalLoop=1;jettySize=auto;html=1;entryX=1;entryY=0.25;entryDx=0;entryDy=0;" edge="1" parent="1" source="grh18UKcflgdsuLqRHBV-72" target="grh18UKcflgdsuLqRHBV-60">
          <mxGeometry relative="1" as="geometry">
            <Array as="points">
              <mxPoint x="1230" y="-906" />
              <mxPoint x="1230" y="-980" />
            </Array>
          </mxGeometry>
        </mxCell>
        <mxCell id="grh18UKcflgdsuLqRHBV-72" value="Store" style="rounded=1;whiteSpace=wrap;html=1;dashed=1;" vertex="1" parent="1">
          <mxGeometry x="1240" y="-996" width="80" height="180" as="geometry" />
        </mxCell>
        <mxCell id="grh18UKcflgdsuLqRHBV-73" style="edgeStyle=orthogonalEdgeStyle;rounded=0;orthogonalLoop=1;jettySize=auto;html=1;entryX=1.018;entryY=0.173;entryDx=0;entryDy=0;entryPerimeter=0;" edge="1" parent="1" source="grh18UKcflgdsuLqRHBV-66" target="grh18UKcflgdsuLqRHBV-72">
          <mxGeometry relative="1" as="geometry" />
        </mxCell>
        <mxCell id="grh18UKcflgdsuLqRHBV-76" style="edgeStyle=orthogonalEdgeStyle;rounded=0;orthogonalLoop=1;jettySize=auto;html=1;exitX=0;exitY=0.5;exitDx=0;exitDy=0;entryX=0.99;entryY=0.668;entryDx=0;entryDy=0;entryPerimeter=0;startArrow=block;startFill=1;endArrow=none;endFill=0;" edge="1" parent="1" source="grh18UKcflgdsuLqRHBV-64" target="grh18UKcflgdsuLqRHBV-72">
          <mxGeometry relative="1" as="geometry" />
        </mxCell>
      </root>
    </mxGraphModel>
  </diagram>
</mxfile>
